<svg width="235" height="239" viewBox="0 0 235 239" fill="none" xmlns="http://www.w3.org/2000/svg">
<circle cx="117.5" cy="121.5" r="115" stroke="white" stroke-opacity="0.38" stroke-width="5" stroke-linejoin="round" stroke-dasharray="2 2"/>
<path d="M112.062 114V111.536L119.806 103.44C120.809 102.395 121.556 101.413 122.046 100.496C122.537 99.5787 122.782 98.6293 122.782 97.648C122.782 96.432 122.398 95.5147 121.63 94.896C120.884 94.2773 119.796 93.968 118.366 93.968C117.236 93.968 116.169 94.1707 115.166 94.576C114.185 94.9813 113.236 95.6 112.318 96.432L111.166 93.904C112.062 93.072 113.172 92.4107 114.494 91.92C115.838 91.408 117.257 91.152 118.75 91.152C121.097 91.152 122.9 91.6853 124.158 92.752C125.438 93.8187 126.078 95.344 126.078 97.328C126.078 98.736 125.737 100.091 125.054 101.392C124.372 102.672 123.348 103.995 121.982 105.36L115.294 112.112V111.216H127.006V114H112.062ZM87.7133 154V137.872H90.9133V144.464H93.6973L98.7213 137.872H102.241L96.2253 145.808L95.4253 144.784C96.0439 144.848 96.5773 145.008 97.0253 145.264C97.4733 145.499 97.9106 145.851 98.3373 146.32C98.7639 146.789 99.2013 147.408 99.6493 148.176L103.009 154H99.5533L96.6733 149.072C96.3533 148.517 96.0439 148.091 95.7453 147.792C95.4466 147.472 95.1053 147.259 94.7213 147.152C94.3373 147.024 93.8679 146.96 93.3133 146.96H90.9133V154H87.7133ZM105.37 154V137.872H108.058L113.882 148.176L119.706 137.872H122.394V154H119.546V141.488H120.25L114.65 151.408H113.114L107.514 141.488H108.218V154H105.37ZM126.765 155.824H124.044L132.429 130H135.149L126.765 155.824ZM147.142 154V147.76C146.545 148.08 145.905 148.336 145.222 148.528C144.54 148.699 143.814 148.784 143.046 148.784C140.721 148.784 138.993 148.24 137.862 147.152C136.753 146.043 136.198 144.389 136.198 142.192V137.872H139.398V141.936C139.398 143.408 139.729 144.475 140.39 145.136C141.052 145.797 142.097 146.128 143.526 146.128C144.252 146.128 144.892 146.053 145.446 145.904C146.001 145.733 146.545 145.477 147.078 145.136V137.872H150.31V154H147.142Z" fill="white"/>
<path d="M118.375 37.144C117.245 37.144 116.274 36.9093 115.463 36.44C114.663 35.9707 114.05 35.304 113.623 34.44C113.197 33.5653 112.983 32.536 112.983 31.352C112.983 30.168 113.197 29.144 113.623 28.28C114.05 27.416 114.663 26.7493 115.463 26.28C116.274 25.8107 117.245 25.576 118.375 25.576C119.186 25.576 119.906 25.6987 120.535 25.944C121.165 26.1787 121.714 26.5253 122.183 26.984L121.639 28.184C121.127 27.736 120.621 27.416 120.119 27.224C119.629 27.0213 119.058 26.92 118.407 26.92C117.159 26.92 116.205 27.304 115.543 28.072C114.882 28.84 114.551 29.9333 114.551 31.352C114.551 32.7707 114.882 33.8693 115.543 34.648C116.205 35.416 117.159 35.8 118.407 35.8C119.058 35.8 119.629 35.704 120.119 35.512C120.621 35.3093 121.127 34.984 121.639 34.536L122.183 35.72C121.714 36.1787 121.159 36.5307 120.519 36.776C119.89 37.0213 119.175 37.144 118.375 37.144Z" fill="white"/>
<path d="M117 0L122.196 9.75H111.804L117 0Z" fill="white"/>
<path d="M217.415 128V116.72H222.007C223.223 116.72 224.156 116.976 224.807 117.488C225.458 118 225.783 118.72 225.783 119.648C225.783 120.352 225.57 120.939 225.143 121.408C224.727 121.877 224.156 122.192 223.431 122.352V122.112C224.263 122.208 224.908 122.496 225.367 122.976C225.836 123.456 226.071 124.091 226.071 124.88C226.071 125.883 225.735 126.656 225.063 127.2C224.391 127.733 223.442 128 222.215 128H217.415ZM218.855 126.816H222.071C222.86 126.816 223.479 126.667 223.927 126.368C224.386 126.059 224.615 125.552 224.615 124.848C224.615 124.133 224.386 123.627 223.927 123.328C223.479 123.029 222.86 122.88 222.071 122.88H218.855V126.816ZM218.855 121.696H221.799C222.642 121.696 223.271 121.536 223.687 121.216C224.103 120.885 224.311 120.411 224.311 119.792C224.311 119.173 224.103 118.704 223.687 118.384C223.271 118.053 222.642 117.888 221.799 117.888H218.855V121.696Z" fill="white"/>
<rect x="230" y="119" width="5" height="6" fill="white"/>
<rect y="119" width="5" height="6" fill="white"/>
<path d="M18.3771 128.144C17.4064 128.144 16.5371 128.016 15.7691 127.76C15.0117 127.504 14.3824 127.157 13.8811 126.72L14.4091 125.584C14.9211 126.011 15.4917 126.331 16.1211 126.544C16.7504 126.757 17.4757 126.864 18.2971 126.864C19.3424 126.864 20.1104 126.693 20.6011 126.352C21.0917 126 21.3371 125.488 21.3371 124.816C21.3371 124.155 21.1237 123.669 20.6971 123.36C20.2811 123.051 19.6411 122.896 18.7771 122.896H15.9291V121.68H18.5371C19.3691 121.68 19.9984 121.52 20.4251 121.2C20.8517 120.88 21.0651 120.411 21.0651 119.792C21.0651 119.195 20.8357 118.725 20.3771 118.384C19.9184 118.032 19.2304 117.856 18.3131 117.856C17.6197 117.856 16.9637 117.957 16.3451 118.16C15.7371 118.363 15.1824 118.677 14.6811 119.104L14.1531 117.968C14.6544 117.509 15.2837 117.163 16.0411 116.928C16.7984 116.693 17.5931 116.576 18.4251 116.576C19.7797 116.576 20.8037 116.853 21.4971 117.408C22.1904 117.963 22.5371 118.704 22.5371 119.632C22.5371 120.336 22.3237 120.928 21.8971 121.408C21.4811 121.877 20.9157 122.187 20.2011 122.336V122.112C21.0117 122.219 21.6464 122.512 22.1051 122.992C22.5744 123.472 22.8091 124.107 22.8091 124.896C22.8091 125.557 22.6437 126.133 22.3131 126.624C21.9931 127.115 21.5024 127.493 20.8411 127.76C20.1904 128.016 19.3691 128.144 18.3771 128.144Z" fill="white"/>
<path d="M120.669 221.144C119.667 221.144 118.787 220.931 118.029 220.504C117.283 220.077 116.685 219.475 116.237 218.696C115.8 217.907 115.544 216.973 115.469 215.896H112.973V221H111.485V209.72H112.973V214.664H115.485C115.581 213.608 115.848 212.701 116.285 211.944C116.733 211.187 117.325 210.605 118.061 210.2C118.808 209.784 119.677 209.576 120.669 209.576C121.747 209.576 122.675 209.811 123.453 210.28C124.243 210.749 124.851 211.416 125.277 212.28C125.704 213.144 125.917 214.168 125.917 215.352C125.917 216.536 125.704 217.565 125.277 218.44C124.851 219.304 124.243 219.971 123.453 220.44C122.664 220.909 121.736 221.144 120.669 221.144ZM120.669 219.848C121.843 219.848 122.749 219.453 123.389 218.664C124.04 217.875 124.365 216.771 124.365 215.352C124.365 213.933 124.04 212.835 123.389 212.056C122.749 211.267 121.843 210.872 120.669 210.872C119.507 210.872 118.6 211.267 117.949 212.056C117.309 212.835 116.989 213.933 116.989 215.352C116.989 216.771 117.309 217.875 117.949 218.664C118.6 219.453 119.507 219.848 120.669 219.848Z" fill="white"/>
<rect x="114" y="233" width="10" height="6" fill="white"/>
<path d="M20.9175 36.9175V45.0825H29.0825V36.9175H20.9175ZM24.2929 41.7071L61.0624 78.4767L62.4767 77.0624L25.7071 40.2929L24.2929 41.7071Z" fill="white"/>
<path d="M195.77 204.77L192.781 193.616L184.616 201.781L195.77 204.77ZM158.293 168.707L188.698 199.113L190.113 197.698L159.707 167.293L158.293 168.707Z" fill="white"/>
</svg>
