<svg width="1133" height="726" viewBox="0 0 1133 726" fill="none" xmlns="http://www.w3.org/2000/svg">
<rect x="76.5" y="0.5" width="1056" height="670" rx="29.5" stroke="#ECECEC" stroke-opacity="0.34"/>
<line x1="76" y1="134.5" x2="1133" y2="134.5" stroke="#ECECEC" stroke-opacity="0.34"/>
<line x1="76" y1="201.5" x2="1133" y2="201.5" stroke="#ECECEC" stroke-opacity="0.34"/>
<line x1="76" y1="67.5" x2="1133" y2="67.4999" stroke="#ECECEC" stroke-opacity="0.34"/>
<line x1="76" y1="268.5" x2="1133" y2="268.5" stroke="#ECECEC" stroke-opacity="0.34"/>
<line x1="76" y1="335.5" x2="1133" y2="335.5" stroke="#ECECEC" stroke-opacity="0.34"/>
<line x1="76" y1="402.5" x2="1133" y2="402.5" stroke="#ECECEC" stroke-opacity="0.34"/>
<line x1="76" y1="469.5" x2="1133" y2="469.5" stroke="#ECECEC" stroke-opacity="0.34"/>
<line x1="76" y1="536.5" x2="1133" y2="536.5" stroke="#ECECEC" stroke-opacity="0.34"/>
<line x1="76" y1="603.5" x2="1133" y2="603.5" stroke="#ECECEC" stroke-opacity="0.34"/>
<line x1="227.5" y1="1" x2="227.5" y2="671" stroke="#ECECEC" stroke-opacity="0.34"/>
<line x1="378.5" y1="1" x2="378.5" y2="671" stroke="#ECECEC" stroke-opacity="0.34"/>
<line x1="529.5" y1="1" x2="529.5" y2="671" stroke="#ECECEC" stroke-opacity="0.34"/>
<line x1="680.5" y1="1" x2="680.5" y2="671" stroke="#ECECEC" stroke-opacity="0.34"/>
<line x1="831.5" y1="1" x2="831.5" y2="671" stroke="#ECECEC" stroke-opacity="0.34"/>
<line x1="982.5" y1="1" x2="982.5" y2="671" stroke="#ECECEC" stroke-opacity="0.34"/>
<path d="M20.2 668.216C18.28 668.216 16.808 667.472 15.784 665.984C14.76 664.496 14.248 662.344 14.248 659.528C14.248 656.696 14.76 654.544 15.784 653.072C16.808 651.6 18.28 650.864 20.2 650.864C22.136 650.864 23.608 651.6 24.616 653.072C25.64 654.544 26.152 656.688 26.152 659.504C26.152 662.336 25.64 664.496 24.616 665.984C23.592 667.472 22.12 668.216 20.2 668.216ZM20.2 666.488C21.544 666.488 22.544 665.92 23.2 664.784C23.856 663.648 24.184 661.888 24.184 659.504C24.184 657.104 23.856 655.352 23.2 654.248C22.544 653.128 21.544 652.568 20.2 652.568C18.872 652.568 17.872 653.128 17.2 654.248C16.544 655.368 16.216 657.12 16.216 659.504C16.216 661.888 16.544 663.648 17.2 664.784C17.872 665.92 18.872 666.488 20.2 666.488ZM38.1124 657.968C37.4404 657.968 36.8324 657.808 36.2884 657.488C35.7444 657.168 35.3124 656.744 34.9924 656.216C34.6884 655.688 34.5364 655.088 34.5364 654.416C34.5364 653.744 34.6884 653.144 34.9924 652.616C35.3124 652.072 35.7444 651.648 36.2884 651.344C36.8324 651.024 37.4404 650.864 38.1124 650.864C38.7844 650.864 39.3844 651.024 39.9124 651.344C40.4404 651.648 40.8564 652.064 41.1604 652.592C41.4804 653.12 41.6404 653.728 41.6404 654.416C41.6404 655.088 41.4804 655.696 41.1604 656.24C40.8564 656.768 40.4404 657.192 39.9124 657.512C39.3844 657.816 38.7844 657.968 38.1124 657.968ZM38.1124 656.648C38.7524 656.648 39.2644 656.44 39.6484 656.024C40.0484 655.592 40.2484 655.056 40.2484 654.416C40.2484 653.76 40.0484 653.224 39.6484 652.808C39.2644 652.392 38.7524 652.184 38.1124 652.184C37.4884 652.184 36.9684 652.392 36.5524 652.808C36.1524 653.224 35.9524 653.76 35.9524 654.416C35.9524 655.056 36.1524 655.592 36.5524 656.024C36.9524 656.44 37.4724 656.648 38.1124 656.648Z" fill="white"/>
<path d="M20.104 601.216C18.968 601.216 17.88 601.04 16.84 600.688C15.8 600.336 14.928 599.832 14.224 599.176L14.968 597.64C15.752 598.28 16.56 598.744 17.392 599.032C18.224 599.32 19.12 599.464 20.08 599.464C21.344 599.464 22.304 599.2 22.96 598.672C23.616 598.128 23.944 597.336 23.944 596.296C23.944 595.304 23.608 594.552 22.936 594.04C22.264 593.512 21.28 593.248 19.984 593.248H17.44V591.592H19.816C20.936 591.592 21.824 591.304 22.48 590.728C23.136 590.152 23.464 589.368 23.464 588.376C23.464 587.48 23.16 586.8 22.552 586.336C21.96 585.856 21.104 585.616 19.984 585.616C18.16 585.616 16.584 586.264 15.256 587.56L14.512 586C15.168 585.328 15.992 584.808 16.984 584.44C17.976 584.056 19.016 583.864 20.104 583.864C21.768 583.864 23.072 584.248 24.016 585.016C24.96 585.784 25.432 586.848 25.432 588.208C25.432 589.248 25.136 590.144 24.544 590.896C23.952 591.632 23.152 592.136 22.144 592.408V592.144C23.344 592.336 24.272 592.816 24.928 593.584C25.584 594.336 25.912 595.288 25.912 596.44C25.912 597.912 25.392 599.08 24.352 599.944C23.328 600.792 21.912 601.216 20.104 601.216ZM38.1124 590.968C37.4404 590.968 36.8324 590.808 36.2884 590.488C35.7444 590.168 35.3124 589.744 34.9924 589.216C34.6884 588.688 34.5364 588.088 34.5364 587.416C34.5364 586.744 34.6884 586.144 34.9924 585.616C35.3124 585.072 35.7444 584.648 36.2884 584.344C36.8324 584.024 37.4404 583.864 38.1124 583.864C38.7844 583.864 39.3844 584.024 39.9124 584.344C40.4404 584.648 40.8564 585.064 41.1604 585.592C41.4804 586.12 41.6404 586.728 41.6404 587.416C41.6404 588.088 41.4804 588.696 41.1604 589.24C40.8564 589.768 40.4404 590.192 39.9124 590.512C39.3844 590.816 38.7844 590.968 38.1124 590.968ZM38.1124 589.648C38.7524 589.648 39.2644 589.44 39.6484 589.024C40.0484 588.592 40.2484 588.056 40.2484 587.416C40.2484 586.76 40.0484 586.224 39.6484 585.808C39.2644 585.392 38.7524 585.184 38.1124 585.184C37.4884 585.184 36.9684 585.392 36.5524 585.808C36.1524 586.224 35.9524 586.76 35.9524 587.416C35.9524 588.056 36.1524 588.592 36.5524 589.024C36.9524 589.44 37.4724 589.648 38.1124 589.648Z" fill="white"/>
<path d="M20.752 534.216C18.704 534.216 17.12 533.496 16 532.056C14.896 530.6 14.344 528.568 14.344 525.96C14.344 524.008 14.624 522.36 15.184 521.016C15.744 519.656 16.544 518.624 17.584 517.92C18.624 517.216 19.88 516.864 21.352 516.864C22.232 516.864 23.12 517.048 24.016 517.416C24.912 517.768 25.648 518.264 26.224 518.904L25.504 520.44C24.896 519.816 24.232 519.36 23.512 519.072C22.792 518.768 22.064 518.616 21.328 518.616C19.696 518.616 18.44 519.2 17.56 520.368C16.696 521.52 16.264 523.256 16.264 525.576V527.808H16.048C16.16 526.896 16.432 526.112 16.864 525.456C17.312 524.784 17.896 524.272 18.616 523.92C19.336 523.568 20.136 523.392 21.016 523.392C22.04 523.392 22.944 523.616 23.728 524.064C24.512 524.512 25.128 525.144 25.576 525.96C26.024 526.76 26.248 527.68 26.248 528.72C26.248 529.776 26.016 530.72 25.552 531.552C25.088 532.384 24.44 533.04 23.608 533.52C22.776 533.984 21.824 534.216 20.752 534.216ZM20.608 532.536C21.344 532.536 21.992 532.384 22.552 532.08C23.128 531.76 23.568 531.32 23.872 530.76C24.192 530.184 24.352 529.528 24.352 528.792C24.352 528.056 24.192 527.408 23.872 526.848C23.568 526.288 23.128 525.848 22.552 525.528C21.992 525.208 21.344 525.048 20.608 525.048C19.872 525.048 19.224 525.208 18.664 525.528C18.104 525.848 17.664 526.288 17.344 526.848C17.04 527.408 16.888 528.056 16.888 528.792C16.888 529.528 17.04 530.184 17.344 530.76C17.664 531.32 18.104 531.76 18.664 532.08C19.224 532.384 19.872 532.536 20.608 532.536ZM38.1124 523.968C37.4404 523.968 36.8324 523.808 36.2884 523.488C35.7444 523.168 35.3124 522.744 34.9924 522.216C34.6884 521.688 34.5364 521.088 34.5364 520.416C34.5364 519.744 34.6884 519.144 34.9924 518.616C35.3124 518.072 35.7444 517.648 36.2884 517.344C36.8324 517.024 37.4404 516.864 38.1124 516.864C38.7844 516.864 39.3844 517.024 39.9124 517.344C40.4404 517.648 40.8564 518.064 41.1604 518.592C41.4804 519.12 41.6404 519.728 41.6404 520.416C41.6404 521.088 41.4804 521.696 41.1604 522.24C40.8564 522.768 40.4404 523.192 39.9124 523.512C39.3844 523.816 38.7844 523.968 38.1124 523.968ZM38.1124 522.648C38.7524 522.648 39.2644 522.44 39.6484 522.024C40.0484 521.592 40.2484 521.056 40.2484 520.416C40.2484 519.76 40.0484 519.224 39.6484 518.808C39.2644 518.392 38.7524 518.184 38.1124 518.184C37.4884 518.184 36.9684 518.392 36.5524 518.808C36.1524 519.224 35.9524 519.76 35.9524 520.416C35.9524 521.056 36.1524 521.592 36.5524 522.024C36.9524 522.44 37.4724 522.648 38.1124 522.648Z" fill="white"/>
<path d="M19.072 467.216C18.192 467.216 17.304 467.032 16.408 466.664C15.512 466.28 14.768 465.784 14.176 465.176L14.92 463.616C15.528 464.24 16.192 464.704 16.912 465.008C17.632 465.312 18.36 465.464 19.096 465.464C20.712 465.464 21.952 464.888 22.816 463.736C23.696 462.568 24.136 460.824 24.136 458.504V456.272H24.376C24.28 457.168 24 457.952 23.536 458.624C23.088 459.296 22.504 459.808 21.784 460.16C21.08 460.512 20.288 460.688 19.408 460.688C18.384 460.688 17.472 460.464 16.672 460.016C15.888 459.568 15.272 458.936 14.824 458.12C14.376 457.304 14.152 456.384 14.152 455.36C14.152 454.288 14.384 453.344 14.848 452.528C15.328 451.696 15.976 451.048 16.792 450.584C17.624 450.104 18.576 449.864 19.648 449.864C21.712 449.864 23.296 450.584 24.4 452.024C25.52 453.464 26.08 455.496 26.08 458.12C26.08 460.056 25.8 461.704 25.24 463.064C24.68 464.424 23.88 465.456 22.84 466.16C21.8 466.864 20.544 467.216 19.072 467.216ZM19.816 459.032C20.552 459.032 21.2 458.872 21.76 458.552C22.32 458.232 22.752 457.792 23.056 457.232C23.376 456.672 23.536 456.024 23.536 455.288C23.536 454.536 23.376 453.88 23.056 453.32C22.752 452.76 22.32 452.32 21.76 452C21.2 451.68 20.552 451.52 19.816 451.52C19.08 451.52 18.424 451.68 17.848 452C17.288 452.32 16.848 452.76 16.528 453.32C16.224 453.88 16.072 454.536 16.072 455.288C16.072 456.024 16.224 456.672 16.528 457.232C16.848 457.792 17.288 458.232 17.848 458.552C18.424 458.872 19.08 459.032 19.816 459.032ZM38.1124 456.968C37.4404 456.968 36.8324 456.808 36.2884 456.488C35.7444 456.168 35.3124 455.744 34.9924 455.216C34.6884 454.688 34.5364 454.088 34.5364 453.416C34.5364 452.744 34.6884 452.144 34.9924 451.616C35.3124 451.072 35.7444 450.648 36.2884 450.344C36.8324 450.024 37.4404 449.864 38.1124 449.864C38.7844 449.864 39.3844 450.024 39.9124 450.344C40.4404 450.648 40.8564 451.064 41.1604 451.592C41.4804 452.12 41.6404 452.728 41.6404 453.416C41.6404 454.088 41.4804 454.696 41.1604 455.24C40.8564 455.768 40.4404 456.192 39.9124 456.512C39.3844 456.816 38.7844 456.968 38.1124 456.968ZM38.1124 455.648C38.7524 455.648 39.2644 455.44 39.6484 455.024C40.0484 454.592 40.2484 454.056 40.2484 453.416C40.2484 452.76 40.0484 452.224 39.6484 451.808C39.2644 451.392 38.7524 451.184 38.1124 451.184C37.4884 451.184 36.9684 451.392 36.5524 451.808C36.1524 452.224 35.9524 452.76 35.9524 453.416C35.9524 454.056 36.1524 454.592 36.5524 455.024C36.9524 455.44 37.4724 455.648 38.1124 455.648Z" fill="white"/>
<path d="M3.048 397V395.296H7.032V381.784H8.088L3.432 384.688V382.696L7.584 380.08H9.024V395.296H12.768V397H3.048ZM16.4546 397V395.512L22.4546 389.248C23.2386 388.432 23.8226 387.656 24.2066 386.92C24.6066 386.168 24.8066 385.392 24.8066 384.592C24.8066 383.616 24.5026 382.88 23.8946 382.384C23.2866 381.872 22.4066 381.616 21.2546 381.616C20.3586 381.616 19.5266 381.776 18.7586 382.096C18.0066 382.4 17.2786 382.888 16.5746 383.56L15.8546 382C16.4946 381.36 17.3106 380.848 18.3026 380.464C19.2946 380.064 20.3426 379.864 21.4466 379.864C23.1586 379.864 24.4786 380.264 25.4066 381.064C26.3346 381.848 26.7986 382.968 26.7986 384.424C26.7986 385.496 26.5346 386.52 26.0066 387.496C25.4946 388.456 24.7426 389.448 23.7506 390.472L18.4466 395.848V395.296H27.5186V397H16.4546ZM39.5031 386.968C38.8311 386.968 38.2231 386.808 37.6791 386.488C37.1351 386.168 36.7031 385.744 36.3831 385.216C36.0791 384.688 35.9271 384.088 35.9271 383.416C35.9271 382.744 36.0791 382.144 36.3831 381.616C36.7031 381.072 37.1351 380.648 37.6791 380.344C38.2231 380.024 38.8311 379.864 39.5031 379.864C40.1751 379.864 40.7751 380.024 41.3031 380.344C41.8311 380.648 42.2471 381.064 42.5511 381.592C42.8711 382.12 43.0311 382.728 43.0311 383.416C43.0311 384.088 42.8711 384.696 42.5511 385.24C42.2471 385.768 41.8311 386.192 41.3031 386.512C40.7751 386.816 40.1751 386.968 39.5031 386.968ZM39.5031 385.648C40.1431 385.648 40.6551 385.44 41.0391 385.024C41.4391 384.592 41.6391 384.056 41.6391 383.416C41.6391 382.76 41.4391 382.224 41.0391 381.808C40.6551 381.392 40.1431 381.184 39.5031 381.184C38.8791 381.184 38.3591 381.392 37.9431 381.808C37.5431 382.224 37.3431 382.76 37.3431 383.416C37.3431 384.056 37.5431 384.592 37.9431 385.024C38.3431 385.44 38.8631 385.648 39.5031 385.648Z" fill="white"/>
<path d="M3.048 330V328.296H7.032V314.784H8.088L3.432 317.688V315.696L7.584 313.08H9.024V328.296H12.768V330H3.048ZM21.9026 330.216C21.1666 330.216 20.4466 330.136 19.7426 329.976C19.0386 329.816 18.3746 329.584 17.7506 329.28C17.1426 328.976 16.6066 328.608 16.1426 328.176L16.8866 326.64C17.6706 327.264 18.4706 327.728 19.2866 328.032C20.1026 328.32 20.9746 328.464 21.9026 328.464C23.1186 328.464 24.0706 328.136 24.7586 327.48C25.4466 326.824 25.7906 325.96 25.7906 324.888C25.7906 323.784 25.4626 322.88 24.8066 322.176C24.1506 321.472 23.2386 321.12 22.0706 321.12C21.2386 321.12 20.4946 321.288 19.8386 321.624C19.1826 321.944 18.6146 322.448 18.1346 323.136H16.6946V313.08H26.7266V314.76H18.6146V321.504H18.0866C18.5186 320.832 19.1106 320.32 19.8626 319.968C20.6306 319.6 21.4946 319.416 22.4546 319.416C23.5426 319.416 24.4786 319.64 25.2626 320.088C26.0626 320.536 26.6786 321.16 27.1106 321.96C27.5426 322.76 27.7586 323.696 27.7586 324.768C27.7586 325.84 27.5186 326.792 27.0386 327.624C26.5746 328.44 25.9026 329.08 25.0226 329.544C24.1586 329.992 23.1186 330.216 21.9026 330.216ZM39.5031 319.968C38.8311 319.968 38.2231 319.808 37.6791 319.488C37.1351 319.168 36.7031 318.744 36.3831 318.216C36.0791 317.688 35.9271 317.088 35.9271 316.416C35.9271 315.744 36.0791 315.144 36.3831 314.616C36.7031 314.072 37.1351 313.648 37.6791 313.344C38.2231 313.024 38.8311 312.864 39.5031 312.864C40.1751 312.864 40.7751 313.024 41.3031 313.344C41.8311 313.648 42.2471 314.064 42.5511 314.592C42.8711 315.12 43.0311 315.728 43.0311 316.416C43.0311 317.088 42.8711 317.696 42.5511 318.24C42.2471 318.768 41.8311 319.192 41.3031 319.512C40.7751 319.816 40.1751 319.968 39.5031 319.968ZM39.5031 318.648C40.1431 318.648 40.6551 318.44 41.0391 318.024C41.4391 317.592 41.6391 317.056 41.6391 316.416C41.6391 315.76 41.4391 315.224 41.0391 314.808C40.6551 314.392 40.1431 314.184 39.5031 314.184C38.8791 314.184 38.3591 314.392 37.9431 314.808C37.5431 315.224 37.3431 315.76 37.3431 316.416C37.3431 317.056 37.5431 317.592 37.9431 318.024C38.3431 318.44 38.8631 318.648 39.5031 318.648Z" fill="white"/>
<path d="M3.048 263V261.296H7.032V247.784H8.088L3.432 250.688V248.696L7.584 246.08H9.024V261.296H12.768V263H3.048ZM21.5906 263.216C19.6546 263.216 18.1586 262.808 17.1026 261.992C16.0466 261.16 15.5186 260 15.5186 258.512C15.5186 257.344 15.8786 256.376 16.5986 255.608C17.3186 254.824 18.2706 254.352 19.4546 254.192V254.552C18.3826 254.328 17.5266 253.84 16.8866 253.088C16.2466 252.32 15.9266 251.416 15.9266 250.376C15.9266 248.952 16.4306 247.848 17.4386 247.064C18.4466 246.264 19.8306 245.864 21.5906 245.864C23.3666 245.864 24.7586 246.264 25.7666 247.064C26.7746 247.848 27.2786 248.952 27.2786 250.376C27.2786 251.416 26.9746 252.32 26.3666 253.088C25.7746 253.856 24.9426 254.336 23.8706 254.528V254.192C25.0386 254.352 25.9666 254.824 26.6546 255.608C27.3426 256.376 27.6866 257.344 27.6866 258.512C27.6866 260 27.1586 261.16 26.1026 261.992C25.0466 262.808 23.5426 263.216 21.5906 263.216ZM21.5906 261.584C22.9986 261.584 24.0466 261.32 24.7346 260.792C25.4386 260.264 25.7906 259.464 25.7906 258.392C25.7906 257.336 25.4386 256.552 24.7346 256.04C24.0466 255.512 22.9986 255.248 21.5906 255.248C20.1826 255.248 19.1266 255.512 18.4226 256.04C17.7346 256.552 17.3906 257.336 17.3906 258.392C17.3906 259.464 17.7426 260.264 18.4466 260.792C19.1506 261.32 20.1986 261.584 21.5906 261.584ZM21.5906 253.616C22.8066 253.616 23.7346 253.344 24.3746 252.8C25.0306 252.256 25.3586 251.504 25.3586 250.544C25.3586 249.584 25.0306 248.84 24.3746 248.312C23.7346 247.768 22.8066 247.496 21.5906 247.496C20.3746 247.496 19.4386 247.768 18.7826 248.312C18.1426 248.84 17.8226 249.584 17.8226 250.544C17.8226 251.504 18.1426 252.256 18.7826 252.8C19.4386 253.344 20.3746 253.616 21.5906 253.616ZM39.5031 252.968C38.8311 252.968 38.2231 252.808 37.6791 252.488C37.1351 252.168 36.7031 251.744 36.3831 251.216C36.0791 250.688 35.9271 250.088 35.9271 249.416C35.9271 248.744 36.0791 248.144 36.3831 247.616C36.7031 247.072 37.1351 246.648 37.6791 246.344C38.2231 246.024 38.8311 245.864 39.5031 245.864C40.1751 245.864 40.7751 246.024 41.3031 246.344C41.8311 246.648 42.2471 247.064 42.5511 247.592C42.8711 248.12 43.0311 248.728 43.0311 249.416C43.0311 250.088 42.8711 250.696 42.5511 251.24C42.2471 251.768 41.8311 252.192 41.3031 252.512C40.7751 252.816 40.1751 252.968 39.5031 252.968ZM39.5031 251.648C40.1431 251.648 40.6551 251.44 41.0391 251.024C41.4391 250.592 41.6391 250.056 41.6391 249.416C41.6391 248.76 41.4391 248.224 41.0391 247.808C40.6551 247.392 40.1431 247.184 39.5031 247.184C38.8791 247.184 38.3591 247.392 37.9431 247.808C37.5431 248.224 37.3431 248.76 37.3431 249.416C37.3431 250.056 37.5431 250.592 37.9431 251.024C38.3431 251.44 38.8631 251.648 39.5031 251.648Z" fill="white"/>
<path d="M2.064 196V194.512L8.064 188.248C8.848 187.432 9.432 186.656 9.816 185.92C10.216 185.168 10.416 184.392 10.416 183.592C10.416 182.616 10.112 181.88 9.504 181.384C8.896 180.872 8.016 180.616 6.864 180.616C5.968 180.616 5.136 180.776 4.368 181.096C3.616 181.4 2.888 181.888 2.184 182.56L1.464 181C2.104 180.36 2.92 179.848 3.912 179.464C4.904 179.064 5.952 178.864 7.056 178.864C8.768 178.864 10.088 179.264 11.016 180.064C11.944 180.848 12.408 181.968 12.408 183.424C12.408 184.496 12.144 185.52 11.616 186.496C11.104 187.456 10.352 188.448 9.36 189.472L4.056 194.848V194.296H13.128V196H2.064ZM17.4386 196V194.296H21.4226V180.784H22.4786L17.8226 183.688V181.696L21.9746 179.08H23.4146V194.296H27.1586V196H17.4386ZM39.5031 185.968C38.8311 185.968 38.2231 185.808 37.6791 185.488C37.1351 185.168 36.7031 184.744 36.3831 184.216C36.0791 183.688 35.9271 183.088 35.9271 182.416C35.9271 181.744 36.0791 181.144 36.3831 180.616C36.7031 180.072 37.1351 179.648 37.6791 179.344C38.2231 179.024 38.8311 178.864 39.5031 178.864C40.1751 178.864 40.7751 179.024 41.3031 179.344C41.8311 179.648 42.2471 180.064 42.5511 180.592C42.8711 181.12 43.0311 181.728 43.0311 182.416C43.0311 183.088 42.8711 183.696 42.5511 184.24C42.2471 184.768 41.8311 185.192 41.3031 185.512C40.7751 185.816 40.1751 185.968 39.5031 185.968ZM39.5031 184.648C40.1431 184.648 40.6551 184.44 41.0391 184.024C41.4391 183.592 41.6391 183.056 41.6391 182.416C41.6391 181.76 41.4391 181.224 41.0391 180.808C40.6551 180.392 40.1431 180.184 39.5031 180.184C38.8791 180.184 38.3591 180.392 37.9431 180.808C37.5431 181.224 37.3431 181.76 37.3431 182.416C37.3431 183.056 37.5431 183.592 37.9431 184.024C38.3431 184.44 38.8631 184.648 39.5031 184.648Z" fill="white"/>
<path d="M2.064 129V127.512L8.064 121.248C8.848 120.432 9.432 119.656 9.816 118.92C10.216 118.168 10.416 117.392 10.416 116.592C10.416 115.616 10.112 114.88 9.504 114.384C8.896 113.872 8.016 113.616 6.864 113.616C5.968 113.616 5.136 113.776 4.368 114.096C3.616 114.4 2.888 114.888 2.184 115.56L1.464 114C2.104 113.36 2.92 112.848 3.912 112.464C4.904 112.064 5.952 111.864 7.056 111.864C8.768 111.864 10.088 112.264 11.016 113.064C11.944 113.848 12.408 114.968 12.408 116.424C12.408 117.496 12.144 118.52 11.616 119.496C11.104 120.456 10.352 121.448 9.36 122.472L4.056 127.848V127.296H13.128V129H2.064ZM23.6546 129V125.328H15.5906V123.888L23.9666 112.08H25.5986V123.72H28.1906V125.328H25.5986V129H23.6546ZM23.6546 123.72V114.432H24.1826L17.2226 124.224V123.72H23.6546ZM39.5031 118.968C38.8311 118.968 38.2231 118.808 37.6791 118.488C37.1351 118.168 36.7031 117.744 36.3831 117.216C36.0791 116.688 35.9271 116.088 35.9271 115.416C35.9271 114.744 36.0791 114.144 36.3831 113.616C36.7031 113.072 37.1351 112.648 37.6791 112.344C38.2231 112.024 38.8311 111.864 39.5031 111.864C40.1751 111.864 40.7751 112.024 41.3031 112.344C41.8311 112.648 42.2471 113.064 42.5511 113.592C42.8711 114.12 43.0311 114.728 43.0311 115.416C43.0311 116.088 42.8711 116.696 42.5511 117.24C42.2471 117.768 41.8311 118.192 41.3031 118.512C40.7751 118.816 40.1751 118.968 39.5031 118.968ZM39.5031 117.648C40.1431 117.648 40.6551 117.44 41.0391 117.024C41.4391 116.592 41.6391 116.056 41.6391 115.416C41.6391 114.76 41.4391 114.224 41.0391 113.808C40.6551 113.392 40.1431 113.184 39.5031 113.184C38.8791 113.184 38.3591 113.392 37.9431 113.808C37.5431 114.224 37.3431 114.76 37.3431 115.416C37.3431 116.056 37.5431 116.592 37.9431 117.024C38.3431 117.44 38.8631 117.648 39.5031 117.648Z" fill="white"/>
<path d="M138.992 720V703.08H153.44V720H150.968V705.144H141.464V720H138.992ZM161.47 720V705.168H155.686V703.08H169.75V705.168H163.966V720H161.47Z" fill="white"/>
<path d="M297.6 720.216C295.872 720.216 294.4 719.864 293.184 719.16C291.968 718.456 291.032 717.456 290.376 716.16C289.736 714.848 289.416 713.304 289.416 711.528C289.416 709.752 289.736 708.216 290.376 706.92C291.032 705.624 291.968 704.624 293.184 703.92C294.4 703.216 295.872 702.864 297.6 702.864C298.8 702.864 299.872 703.04 300.816 703.392C301.76 703.744 302.584 704.256 303.288 704.928L302.424 706.92C301.656 706.264 300.904 705.792 300.168 705.504C299.448 705.216 298.608 705.072 297.648 705.072C295.824 705.072 294.432 705.632 293.472 706.752C292.512 707.872 292.032 709.464 292.032 711.528C292.032 713.592 292.512 715.192 293.472 716.328C294.432 717.448 295.824 718.008 297.648 718.008C298.608 718.008 299.448 717.864 300.168 717.576C300.904 717.288 301.656 716.808 302.424 716.136L303.288 718.128C302.584 718.8 301.76 719.32 300.816 719.688C299.872 720.04 298.8 720.216 297.6 720.216ZM306.422 720V703.08H318.134V705.048H308.822V710.376H313.982C315.822 710.376 317.246 710.776 318.254 711.576C319.278 712.376 319.79 713.568 319.79 715.152C319.79 716.736 319.278 717.944 318.254 718.776C317.246 719.592 315.822 720 313.982 720H306.422ZM308.822 718.032H313.718C314.966 718.032 315.886 717.8 316.478 717.336C317.07 716.856 317.366 716.136 317.366 715.176C317.366 714.216 317.07 713.504 316.478 713.04C315.886 712.576 314.966 712.344 313.718 712.344H308.822V718.032Z" fill="white"/>
<path d="M439.992 719V702.08H447.048C448.872 702.08 450.272 702.464 451.248 703.232C452.24 704 452.736 705.08 452.736 706.472C452.736 707.512 452.424 708.384 451.8 709.088C451.176 709.792 450.32 710.264 449.232 710.504V710.144C450.48 710.304 451.448 710.744 452.136 711.464C452.824 712.184 453.168 713.136 453.168 714.32C453.168 715.824 452.656 716.984 451.632 717.8C450.624 718.6 449.2 719 447.36 719H439.992ZM442.416 717.056H447.096C448.232 717.056 449.12 716.84 449.76 716.408C450.416 715.976 450.744 715.248 450.744 714.224C450.744 713.2 450.416 712.472 449.76 712.04C449.12 711.608 448.232 711.392 447.096 711.392H442.416V717.056ZM442.416 709.472H446.664C447.88 709.472 448.792 709.24 449.4 708.776C450.008 708.312 450.312 707.632 450.312 706.736C450.312 705.84 450.008 705.16 449.4 704.696C448.792 704.232 447.88 704 446.664 704H442.416V709.472ZM464.03 719.216C462.302 719.216 460.83 718.864 459.614 718.16C458.398 717.456 457.462 716.456 456.806 715.16C456.166 713.848 455.846 712.304 455.846 710.528C455.846 708.752 456.166 707.216 456.806 705.92C457.462 704.624 458.398 703.624 459.614 702.92C460.83 702.216 462.302 701.864 464.03 701.864C465.23 701.864 466.302 702.04 467.246 702.392C468.19 702.744 469.014 703.256 469.718 703.928L468.854 705.92C468.086 705.264 467.334 704.792 466.598 704.504C465.878 704.216 465.038 704.072 464.078 704.072C462.254 704.072 460.862 704.632 459.902 705.752C458.942 706.872 458.462 708.464 458.462 710.528C458.462 712.592 458.942 714.192 459.902 715.328C460.862 716.448 462.254 717.008 464.078 717.008C465.038 717.008 465.878 716.864 466.598 716.576C467.334 716.288 468.086 715.808 468.854 715.136L469.718 717.128C469.014 717.8 468.19 718.32 467.246 718.688C466.302 719.04 465.23 719.216 464.03 719.216Z" fill="white"/>
<path d="M589.992 719V702.08H604.44V719H601.968V704.144H592.464V719H589.992ZM608.414 719V702.08H610.91V709.376H620.414V702.08H622.91V719H620.414V711.464H610.91V719H608.414Z" fill="white"/>
<path d="M740.992 719V702.08H748.048C749.872 702.08 751.272 702.464 752.248 703.232C753.24 704 753.736 705.08 753.736 706.472C753.736 707.512 753.424 708.384 752.8 709.088C752.176 709.792 751.32 710.264 750.232 710.504V710.144C751.48 710.304 752.448 710.744 753.136 711.464C753.824 712.184 754.168 713.136 754.168 714.32C754.168 715.824 753.656 716.984 752.632 717.8C751.624 718.6 750.2 719 748.36 719H740.992ZM743.416 717.056H748.096C749.232 717.056 750.12 716.84 750.76 716.408C751.416 715.976 751.744 715.248 751.744 714.224C751.744 713.2 751.416 712.472 750.76 712.04C750.12 711.608 749.232 711.392 748.096 711.392H743.416V717.056ZM743.416 709.472H747.664C748.88 709.472 749.792 709.24 750.4 708.776C751.008 708.312 751.312 707.632 751.312 706.736C751.312 705.84 751.008 705.16 750.4 704.696C749.792 704.232 748.88 704 747.664 704H743.416V709.472ZM761.243 719V704.168H755.459V702.08H769.523V704.168H763.739V719H761.243Z" fill="white"/>
<path d="M903.6 719.216C901.872 719.216 900.4 718.864 899.184 718.16C897.968 717.456 897.032 716.456 896.376 715.16C895.736 713.848 895.416 712.304 895.416 710.528C895.416 708.752 895.736 707.216 896.376 705.92C897.032 704.624 897.968 703.624 899.184 702.92C900.4 702.216 901.872 701.864 903.6 701.864C904.8 701.864 905.872 702.04 906.816 702.392C907.76 702.744 908.584 703.256 909.288 703.928L908.424 705.92C907.656 705.264 906.904 704.792 906.168 704.504C905.448 704.216 904.608 704.072 903.648 704.072C901.824 704.072 900.432 704.632 899.472 705.752C898.512 706.872 898.032 708.464 898.032 710.528C898.032 712.592 898.512 714.192 899.472 715.328C900.432 716.448 901.824 717.008 903.648 717.008C904.608 717.008 905.448 716.864 906.168 716.576C906.904 716.288 907.656 715.808 908.424 715.136L909.288 717.128C908.584 717.8 907.76 718.32 906.816 718.688C905.872 719.04 904.8 719.216 903.6 719.216ZM912.422 719V702.08H919.598C921.406 702.08 922.79 702.52 923.75 703.4C924.726 704.264 925.214 705.464 925.214 707C925.214 708.536 924.726 709.744 923.75 710.624C922.79 711.504 921.406 711.944 919.598 711.944H914.918V719H912.422ZM914.918 709.952H919.334C920.47 709.952 921.326 709.696 921.902 709.184C922.478 708.672 922.766 707.944 922.766 707C922.766 706.072 922.478 705.352 921.902 704.84C921.326 704.328 920.47 704.072 919.334 704.072H914.918V709.952Z" fill="white"/>
<path d="M1055.36 719V712.088C1054.86 712.328 1054.24 712.52 1053.49 712.664C1052.74 712.808 1051.98 712.88 1051.23 712.88C1048.99 712.88 1047.28 712.304 1046.1 711.152C1044.93 709.984 1044.34 708.232 1044.34 705.896V702.08H1046.82V705.752C1046.82 707.48 1047.2 708.744 1047.97 709.544C1048.75 710.328 1049.93 710.72 1051.5 710.72C1052.17 710.72 1052.83 710.656 1053.49 710.528C1054.14 710.4 1054.77 710.184 1055.36 709.88V702.08H1057.83V719H1055.36ZM1065.88 719V704.168H1060.09V702.08H1074.16V704.168H1068.37V719H1065.88Z" fill="white"/>
<g clip-path="url(#clip0_334_1142)">
<path opacity="0.921" fill-rule="evenodd" clip-rule="evenodd" d="M154.32 13.9609C154.554 13.9609 154.789 13.9609 155.023 13.9609C155.187 14.112 155.304 14.2943 155.375 14.5078C155.427 15.4974 155.427 16.487 155.375 17.4766C155.185 18.0014 154.833 18.1707 154.32 17.9844C154.104 17.8467 153.987 17.6514 153.969 17.3984C153.896 16.3524 153.922 15.3107 154.047 14.2734C154.154 14.1793 154.245 14.0751 154.32 13.9609Z" fill="#FDCF20"/>
<path opacity="0.927" fill-rule="evenodd" clip-rule="evenodd" d="M142.211 17.3203C142.457 17.2978 142.691 17.3369 142.914 17.4375C143.865 18.388 144.815 19.3386 145.766 20.2891C146.067 20.9339 145.871 21.3245 145.18 21.461C145.039 21.4549 144.909 21.4159 144.789 21.3438C143.812 20.3672 142.836 19.3906 141.859 18.4141C141.642 17.9386 141.759 17.574 142.211 17.3203Z" fill="#FCD01F"/>
<path opacity="0.901" fill-rule="evenodd" clip-rule="evenodd" d="M166.586 17.3203C167.163 17.2299 167.501 17.4643 167.602 18.0235C167.575 18.26 167.483 18.4683 167.328 18.6485C166.482 19.4948 165.635 20.3412 164.789 21.1875C164.281 21.5997 163.851 21.5346 163.5 20.9922C163.438 20.7474 163.464 20.513 163.578 20.2891C164.573 19.2816 165.575 18.292 166.586 17.3203Z" fill="#FCD01F"/>
<path opacity="0.992" fill-rule="evenodd" clip-rule="evenodd" d="M161.117 38.1797C159.709 35.3524 157.417 34.0893 154.242 34.3906C153.771 34.4869 153.316 34.6301 152.875 34.8203C151.244 31.2271 148.445 29.4564 144.477 29.5078C144.853 25.9197 146.572 23.1984 149.633 21.3438C152.222 19.9604 154.93 19.6739 157.758 20.4844C161.829 21.9517 164.185 24.8293 164.828 29.1172C165.117 32.7816 163.88 35.8024 161.117 38.1797Z" fill="#FCD020"/>
<path opacity="0.996" fill-rule="evenodd" clip-rule="evenodd" d="M144.477 29.5078C148.445 29.4563 151.244 31.2271 152.875 34.8203C153.316 34.6301 153.771 34.4869 154.242 34.3906C157.417 34.0893 159.709 35.3523 161.117 38.1797C161.179 38.4696 161.257 38.7561 161.352 39.0391C164.683 38.6545 167.3 39.8264 169.203 42.5547C170.765 45.4044 170.66 48.1908 168.891 50.9141C167.618 52.5986 165.939 53.6142 163.852 53.9609C154.815 53.9609 145.779 53.9609 136.742 53.9609C133.539 53.3099 131.612 51.3828 130.961 48.1797C130.961 47.5026 130.961 46.8255 130.961 46.1484C131.752 42.7017 133.914 40.7486 137.445 40.2891C136.455 36.9474 137.184 34.0437 139.633 31.5781C141.018 30.3651 142.632 29.6751 144.477 29.5078Z" fill="white"/>
<path opacity="0.955" fill-rule="evenodd" clip-rule="evenodd" d="M170.961 29.8985C170.961 30.1068 170.961 30.3151 170.961 30.5235C170.871 30.6778 170.741 30.7949 170.57 30.875C169.45 30.9271 168.331 30.9271 167.211 30.875C166.678 30.3629 166.731 29.9202 167.367 29.5469C168.383 29.4948 169.398 29.4948 170.414 29.5469C170.627 29.6175 170.81 29.7347 170.961 29.8985Z" fill="#FDD020"/>
</g>
<g clip-path="url(#clip1_334_1142)">
<path opacity="0.921" fill-rule="evenodd" clip-rule="evenodd" d="M909.32 13.9609C909.554 13.9609 909.789 13.9609 910.023 13.9609C910.187 14.112 910.304 14.2943 910.375 14.5078C910.427 15.4974 910.427 16.487 910.375 17.4766C910.185 18.0014 909.833 18.1707 909.32 17.9844C909.104 17.8467 908.987 17.6514 908.969 17.3984C908.896 16.3524 908.922 15.3107 909.047 14.2734C909.154 14.1793 909.245 14.0751 909.32 13.9609Z" fill="#FDCF20"/>
<path opacity="0.927" fill-rule="evenodd" clip-rule="evenodd" d="M897.211 17.3203C897.457 17.2978 897.691 17.3369 897.914 17.4375C898.865 18.388 899.815 19.3386 900.766 20.2891C901.067 20.9339 900.871 21.3245 900.18 21.461C900.039 21.4549 899.909 21.4159 899.789 21.3438C898.812 20.3672 897.836 19.3906 896.859 18.4141C896.642 17.9386 896.759 17.574 897.211 17.3203Z" fill="#FCD01F"/>
<path opacity="0.901" fill-rule="evenodd" clip-rule="evenodd" d="M921.586 17.3203C922.163 17.2299 922.501 17.4643 922.602 18.0235C922.575 18.26 922.483 18.4683 922.328 18.6485C921.482 19.4948 920.635 20.3412 919.789 21.1875C919.281 21.5997 918.851 21.5346 918.5 20.9922C918.438 20.7474 918.464 20.513 918.578 20.2891C919.573 19.2816 920.575 18.292 921.586 17.3203Z" fill="#FCD01F"/>
<path opacity="0.992" fill-rule="evenodd" clip-rule="evenodd" d="M916.117 38.1797C914.709 35.3524 912.417 34.0893 909.242 34.3906C908.771 34.4869 908.316 34.6301 907.875 34.8203C906.244 31.2271 903.445 29.4564 899.477 29.5078C899.853 25.9197 901.572 23.1984 904.633 21.3438C907.222 19.9604 909.93 19.6739 912.758 20.4844C916.829 21.9517 919.185 24.8293 919.828 29.1172C920.117 32.7816 918.88 35.8024 916.117 38.1797Z" fill="#FCD020"/>
<path opacity="0.996" fill-rule="evenodd" clip-rule="evenodd" d="M899.477 29.5078C903.445 29.4563 906.244 31.2271 907.875 34.8203C908.316 34.6301 908.771 34.4869 909.242 34.3906C912.417 34.0893 914.709 35.3523 916.117 38.1797C916.179 38.4696 916.257 38.7561 916.352 39.0391C919.683 38.6545 922.3 39.8264 924.203 42.5547C925.765 45.4044 925.66 48.1908 923.891 50.9141C922.618 52.5986 920.939 53.6142 918.852 53.9609C909.815 53.9609 900.779 53.9609 891.742 53.9609C888.539 53.3099 886.612 51.3828 885.961 48.1797C885.961 47.5026 885.961 46.8255 885.961 46.1484C886.752 42.7017 888.914 40.7486 892.445 40.2891C891.455 36.9474 892.184 34.0437 894.633 31.5781C896.018 30.3651 897.632 29.6751 899.477 29.5078Z" fill="white"/>
<path opacity="0.955" fill-rule="evenodd" clip-rule="evenodd" d="M925.961 29.8985C925.961 30.1068 925.961 30.3151 925.961 30.5235C925.871 30.6778 925.741 30.7949 925.57 30.875C924.45 30.9271 923.331 30.9271 922.211 30.875C921.678 30.3629 921.731 29.9202 922.367 29.5469C923.383 29.4948 924.398 29.4948 925.414 29.5469C925.627 29.6175 925.81 29.7347 925.961 29.8985Z" fill="#FDD020"/>
</g>
<g clip-path="url(#clip2_334_1142)">
<path opacity="0.935" fill-rule="evenodd" clip-rule="evenodd" d="M301.648 13.9609C301.857 13.9609 302.065 13.9609 302.273 13.9609C302.445 14.0667 302.562 14.223 302.625 14.4297C302.677 16.3568 302.677 18.2839 302.625 20.2109C302.182 20.8359 301.74 20.8359 301.297 20.2109C301.245 18.2839 301.245 16.3568 301.297 14.4297C301.36 14.223 301.477 14.0667 301.648 13.9609Z" fill="#FCD01F"/>
<path opacity="0.949" fill-rule="evenodd" clip-rule="evenodd" d="M287.664 19.2735C287.91 19.2509 288.145 19.29 288.367 19.3906C289.76 20.7839 291.154 22.1771 292.547 23.5703C292.783 24.1662 292.588 24.5307 291.961 24.6641C291.82 24.6581 291.69 24.619 291.57 24.5469C290.177 23.1537 288.784 21.7604 287.391 20.3672C287.177 19.9193 287.268 19.5547 287.664 19.2735Z" fill="#FCD01F"/>
<path opacity="0.949" fill-rule="evenodd" clip-rule="evenodd" d="M315.711 19.2735C316.498 19.2593 316.771 19.6239 316.531 20.3672C315.138 21.7604 313.745 23.1537 312.351 24.5469C311.886 24.771 311.534 24.6538 311.297 24.1953C311.238 23.9764 311.264 23.768 311.375 23.5703C312.812 22.1202 314.257 20.6879 315.711 19.2735Z" fill="#FCD01F"/>
<path opacity="0.992" fill-rule="evenodd" clip-rule="evenodd" d="M301.883 22.5547C307.126 22.8117 310.733 25.3638 312.703 30.2109C314.143 35.1162 312.984 39.2959 309.227 42.75C305.26 45.6836 301.042 46.1002 296.57 44C292.769 41.7447 290.764 38.3984 290.555 33.9609C290.771 29.4505 292.828 26.078 296.727 23.8438C298.363 23.0439 300.082 22.6142 301.883 22.5547Z" fill="#FCD01F"/>
<path opacity="0.935" fill-rule="evenodd" clip-rule="evenodd" d="M281.961 34.2735C281.961 34.0651 281.961 33.8568 281.961 33.6485C282.067 33.4769 282.223 33.3597 282.43 33.2969C284.357 33.2448 286.284 33.2448 288.211 33.2969C288.836 33.7396 288.836 34.1823 288.211 34.625C286.284 34.6771 284.357 34.6771 282.43 34.625C282.223 34.5622 282.067 34.445 281.961 34.2735Z" fill="#FCD01F"/>
<path opacity="0.935" fill-rule="evenodd" clip-rule="evenodd" d="M321.961 33.6485C321.961 33.8568 321.961 34.0651 321.961 34.2735C321.855 34.445 321.699 34.5622 321.492 34.625C319.565 34.6771 317.638 34.6771 315.711 34.625C315.086 34.1823 315.086 33.7396 315.711 33.2969C317.638 33.2448 319.565 33.2448 321.492 33.2969C321.699 33.3597 321.855 33.4769 321.961 33.6485Z" fill="#FCD01F"/>
<path opacity="0.949" fill-rule="evenodd" clip-rule="evenodd" d="M291.727 43.2578C292.498 43.2601 292.772 43.6247 292.547 44.3516C291.128 45.7709 289.708 47.1901 288.289 48.6094C287.424 48.7341 287.125 48.3826 287.391 47.5547C288.828 46.1045 290.273 44.6722 291.727 43.2578Z" fill="#FCD01F"/>
<path opacity="0.949" fill-rule="evenodd" clip-rule="evenodd" d="M311.805 43.2578C311.999 43.242 312.182 43.2811 312.352 43.375C313.745 44.7682 315.138 46.1615 316.531 47.5547C316.797 48.3826 316.498 48.7341 315.633 48.6094C314.214 47.1901 312.794 45.7708 311.375 44.3516C311.175 43.843 311.319 43.4784 311.805 43.2578Z" fill="#FCD01F"/>
<path opacity="0.935" fill-rule="evenodd" clip-rule="evenodd" d="M302.273 53.9609C302.065 53.9609 301.857 53.9609 301.648 53.9609C301.477 53.8552 301.36 53.6989 301.297 53.4922C301.245 51.5651 301.245 49.638 301.297 47.7109C301.74 47.0859 302.182 47.0859 302.625 47.7109C302.677 49.638 302.677 51.5651 302.625 53.4922C302.562 53.6989 302.445 53.8552 302.273 53.9609Z" fill="#FCD01F"/>
</g>
<g clip-path="url(#clip3_334_1142)">
<path opacity="0.935" fill-rule="evenodd" clip-rule="evenodd" d="M754.648 13.9609C754.857 13.9609 755.065 13.9609 755.273 13.9609C755.445 14.0667 755.562 14.223 755.625 14.4297C755.677 16.3568 755.677 18.2839 755.625 20.2109C755.182 20.8359 754.74 20.8359 754.297 20.2109C754.245 18.2839 754.245 16.3568 754.297 14.4297C754.36 14.223 754.477 14.0667 754.648 13.9609Z" fill="#FCD01F"/>
<path opacity="0.949" fill-rule="evenodd" clip-rule="evenodd" d="M740.664 19.2735C740.91 19.2509 741.145 19.29 741.367 19.3906C742.76 20.7839 744.154 22.1771 745.547 23.5703C745.783 24.1662 745.588 24.5307 744.961 24.6641C744.82 24.6581 744.69 24.619 744.57 24.5469C743.177 23.1537 741.784 21.7604 740.391 20.3672C740.177 19.9193 740.268 19.5547 740.664 19.2735Z" fill="#FCD01F"/>
<path opacity="0.949" fill-rule="evenodd" clip-rule="evenodd" d="M768.711 19.2735C769.498 19.2593 769.771 19.6239 769.531 20.3672C768.138 21.7604 766.745 23.1537 765.351 24.5469C764.886 24.771 764.534 24.6538 764.297 24.1953C764.238 23.9764 764.264 23.768 764.375 23.5703C765.812 22.1202 767.257 20.6879 768.711 19.2735Z" fill="#FCD01F"/>
<path opacity="0.992" fill-rule="evenodd" clip-rule="evenodd" d="M754.883 22.5547C760.126 22.8117 763.733 25.3638 765.703 30.2109C767.143 35.1162 765.984 39.2959 762.227 42.75C758.26 45.6836 754.042 46.1002 749.57 44C745.769 41.7447 743.764 38.3984 743.555 33.9609C743.771 29.4505 745.828 26.078 749.727 23.8438C751.363 23.0439 753.082 22.6142 754.883 22.5547Z" fill="#FCD01F"/>
<path opacity="0.935" fill-rule="evenodd" clip-rule="evenodd" d="M734.961 34.2735C734.961 34.0651 734.961 33.8568 734.961 33.6485C735.067 33.4769 735.223 33.3597 735.43 33.2969C737.357 33.2448 739.284 33.2448 741.211 33.2969C741.836 33.7396 741.836 34.1823 741.211 34.625C739.284 34.6771 737.357 34.6771 735.43 34.625C735.223 34.5622 735.067 34.445 734.961 34.2735Z" fill="#FCD01F"/>
<path opacity="0.935" fill-rule="evenodd" clip-rule="evenodd" d="M774.961 33.6485C774.961 33.8568 774.961 34.0651 774.961 34.2735C774.855 34.445 774.699 34.5622 774.492 34.625C772.565 34.6771 770.638 34.6771 768.711 34.625C768.086 34.1823 768.086 33.7396 768.711 33.2969C770.638 33.2448 772.565 33.2448 774.492 33.2969C774.699 33.3597 774.855 33.4769 774.961 33.6485Z" fill="#FCD01F"/>
<path opacity="0.949" fill-rule="evenodd" clip-rule="evenodd" d="M744.727 43.2578C745.498 43.2601 745.772 43.6247 745.547 44.3516C744.128 45.7709 742.708 47.1901 741.289 48.6094C740.424 48.7341 740.125 48.3826 740.391 47.5547C741.828 46.1045 743.273 44.6722 744.727 43.2578Z" fill="#FCD01F"/>
<path opacity="0.949" fill-rule="evenodd" clip-rule="evenodd" d="M764.805 43.2578C764.999 43.242 765.182 43.2811 765.352 43.375C766.745 44.7682 768.138 46.1615 769.531 47.5547C769.797 48.3826 769.498 48.7341 768.633 48.6094C767.214 47.1901 765.794 45.7708 764.375 44.3516C764.175 43.843 764.319 43.4784 764.805 43.2578Z" fill="#FCD01F"/>
<path opacity="0.935" fill-rule="evenodd" clip-rule="evenodd" d="M755.273 53.9609C755.065 53.9609 754.857 53.9609 754.648 53.9609C754.477 53.8552 754.36 53.6989 754.297 53.4922C754.245 51.5651 754.245 49.638 754.297 47.7109C754.74 47.0859 755.182 47.0859 755.625 47.7109C755.677 49.638 755.677 51.5651 755.625 53.4922C755.562 53.6989 755.445 53.8552 755.273 53.9609Z" fill="#FCD01F"/>
</g>
<g clip-path="url(#clip4_334_1142)">
<path opacity="0.993" fill-rule="evenodd" clip-rule="evenodd" d="M472.961 37.7891C472.961 38.4922 472.961 39.1953 472.961 39.8984C472.184 43.6566 469.893 45.8311 466.086 46.4219C456.917 46.4989 447.751 46.4729 438.586 46.3438C435.474 45.5891 433.599 43.649 432.961 40.5234C432.961 39.8463 432.961 39.1693 432.961 38.4922C433.753 34.9425 435.967 32.9763 439.602 32.5938C438.472 28.8213 439.41 25.6702 442.414 23.1406C444.82 21.4669 447.425 21.0763 450.227 21.9688C452.605 22.9145 454.284 24.5681 455.266 26.9297C458.204 25.8283 460.704 26.4533 462.766 28.8047C463.311 29.5302 463.688 30.3376 463.898 31.2266C466.835 30.8813 469.296 31.7928 471.281 33.9609C472.183 35.0929 472.743 36.3689 472.961 37.7891Z" fill="white"/>
</g>
<g clip-path="url(#clip5_334_1142)">
<path opacity="0.953" fill-rule="evenodd" clip-rule="evenodd" d="M608.805 15.2891C609.186 15.2391 609.486 15.3693 609.703 15.6797C609.755 16.3307 609.755 16.9818 609.703 17.6328C609.413 18.0861 609.036 18.1773 608.57 17.9063C608.477 17.8358 608.411 17.7446 608.375 17.6328C608.323 17.0078 608.323 16.3828 608.375 15.7578C608.481 15.5607 608.624 15.4045 608.805 15.2891Z" fill="#FDD020"/>
<path opacity="0.917" fill-rule="evenodd" clip-rule="evenodd" d="M619.742 18.6484C620.503 18.7118 620.75 19.1024 620.484 19.8203C619.976 20.3281 619.469 20.8359 618.961 21.3438C618.078 21.5801 617.726 21.2546 617.906 20.3672C618.488 19.7454 619.1 19.1725 619.742 18.6484Z" fill="#FCD01F"/>
<path opacity="0.99" fill-rule="evenodd" clip-rule="evenodd" d="M618.414 32.6328C616.78 31.8373 615.061 31.5769 613.258 31.8515C612.744 29.7883 611.494 28.369 609.508 27.5937C608.023 27.0746 606.565 27.1397 605.133 27.789C604.827 27.2034 604.502 26.6305 604.156 26.0703C603.672 25.5121 603.19 24.9652 602.711 24.4297C605.177 20.738 608.588 19.3968 612.945 20.4062C615.958 21.4142 617.951 23.4324 618.922 26.4609C619.475 28.5808 619.306 30.638 618.414 32.6328Z" fill="#FCD020"/>
<path opacity="0.995" fill-rule="evenodd" clip-rule="evenodd" d="M602.711 24.4297C603.19 24.9652 603.672 25.5121 604.156 26.0703C604.502 26.6305 604.827 27.2034 605.133 27.789C606.565 27.1397 608.023 27.0746 609.508 27.5937C611.494 28.369 612.744 29.7883 613.258 31.8515C615.061 31.5769 616.78 31.8373 618.414 32.6328C621.079 34.3176 622.238 36.7395 621.891 39.8984C621.209 43.2368 619.19 45.2029 615.836 45.7968C614.248 45.8359 612.659 45.849 611.07 45.8359C610.472 44.4577 609.808 43.1035 609.078 41.7734C608.323 43.1007 607.633 44.4548 607.008 45.8359C603.883 45.8359 600.758 45.8359 597.633 45.8359C597.143 44.965 596.661 44.0795 596.188 43.1797C595.684 44.0574 595.202 44.9429 594.742 45.8359C592.971 45.849 591.2 45.8359 589.43 45.7968C586.456 45.18 584.633 43.3961 583.961 40.4453C583.961 39.7943 583.961 39.1432 583.961 38.4922C584.719 35.1175 586.828 33.2816 590.289 32.9843C589.324 29.7333 590.079 26.9468 592.555 24.625C595.896 22.1563 599.281 22.0912 602.711 24.4297Z" fill="white"/>
<path opacity="0.921" fill-rule="evenodd" clip-rule="evenodd" d="M623.961 28.5703C623.961 28.7787 623.961 28.987 623.961 29.1953C623.871 29.3496 623.741 29.4668 623.57 29.5469C622.919 29.599 622.268 29.599 621.617 29.5469C621.096 29.1042 621.096 28.6615 621.617 28.2188C622.268 28.1667 622.919 28.1667 623.57 28.2188C623.741 28.2988 623.871 28.416 623.961 28.5703Z" fill="#FCD01F"/>
<path fill-rule="evenodd" clip-rule="evenodd" d="M602.242 35.0547C603.317 36.7625 604.163 38.5855 604.781 40.5234C605.218 41.7467 604.996 42.8274 604.117 43.7656C603.216 44.457 602.226 44.6133 601.148 44.2344C599.921 43.5369 599.413 42.4822 599.625 41.0703C600.241 38.9528 601.113 36.9476 602.242 35.0547Z" fill="#A3D4F6"/>
<path opacity="0.98" fill-rule="evenodd" clip-rule="evenodd" d="M611.07 45.8359C611.577 46.8728 611.798 47.9666 611.734 49.1172C611.21 50.7927 610.077 51.4828 608.336 51.1875C606.834 50.6718 606.17 49.6171 606.344 48.0234C606.511 47.2751 606.732 46.5459 607.008 45.8359C607.633 44.4548 608.323 43.1007 609.078 41.7734C609.808 43.1035 610.472 44.4577 611.07 45.8359Z" fill="#A3D4F6"/>
<path opacity="0.977" fill-rule="evenodd" clip-rule="evenodd" d="M597.633 45.8359C598.152 46.9105 598.555 48.0303 598.844 49.1953C599.093 50.7952 598.481 51.902 597.008 52.5156C595.336 52.8582 594.177 52.2463 593.531 50.6797C593.38 50.1323 593.38 49.5854 593.531 49.0391C593.82 47.9252 594.224 46.8576 594.742 45.8359C595.202 44.9429 595.684 44.0574 596.188 43.1797C596.661 44.0795 597.143 44.965 597.633 45.8359Z" fill="#A3D4F6"/>
</g>
<g clip-path="url(#clip6_334_1142)">
<path opacity="0.953" fill-rule="evenodd" clip-rule="evenodd" d="M1061.8 15.2891C1062.19 15.2391 1062.49 15.3693 1062.7 15.6797C1062.76 16.3307 1062.76 16.9818 1062.7 17.6328C1062.41 18.0861 1062.04 18.1773 1061.57 17.9063C1061.48 17.8358 1061.41 17.7446 1061.38 17.6328C1061.32 17.0078 1061.32 16.3828 1061.38 15.7578C1061.48 15.5607 1061.62 15.4045 1061.8 15.2891Z" fill="#FDD020"/>
<path opacity="0.917" fill-rule="evenodd" clip-rule="evenodd" d="M1072.74 18.6484C1073.5 18.7118 1073.75 19.1024 1073.48 19.8203C1072.98 20.3281 1072.47 20.8359 1071.96 21.3438C1071.08 21.5801 1070.73 21.2546 1070.91 20.3672C1071.49 19.7454 1072.1 19.1725 1072.74 18.6484Z" fill="#FCD01F"/>
<path opacity="0.99" fill-rule="evenodd" clip-rule="evenodd" d="M1071.41 32.6328C1069.78 31.8373 1068.06 31.5769 1066.26 31.8515C1065.74 29.7883 1064.49 28.369 1062.51 27.5937C1061.02 27.0746 1059.56 27.1397 1058.13 27.789C1057.83 27.2034 1057.5 26.6305 1057.16 26.0703C1056.67 25.5121 1056.19 24.9652 1055.71 24.4297C1058.18 20.738 1061.59 19.3968 1065.95 20.4062C1068.96 21.4142 1070.95 23.4324 1071.92 26.4609C1072.48 28.5808 1072.31 30.638 1071.41 32.6328Z" fill="#FCD020"/>
<path opacity="0.995" fill-rule="evenodd" clip-rule="evenodd" d="M1055.71 24.4297C1056.19 24.9652 1056.67 25.5121 1057.16 26.0703C1057.5 26.6305 1057.83 27.2034 1058.13 27.789C1059.56 27.1397 1061.02 27.0746 1062.51 27.5937C1064.49 28.369 1065.74 29.7883 1066.26 31.8515C1068.06 31.5769 1069.78 31.8373 1071.41 32.6328C1074.08 34.3176 1075.24 36.7395 1074.89 39.8984C1074.21 43.2368 1072.19 45.2029 1068.84 45.7968C1067.25 45.8359 1065.66 45.849 1064.07 45.8359C1063.47 44.4577 1062.81 43.1035 1062.08 41.7734C1061.32 43.1007 1060.63 44.4548 1060.01 45.8359C1056.88 45.8359 1053.76 45.8359 1050.63 45.8359C1050.14 44.965 1049.66 44.0795 1049.19 43.1797C1048.68 44.0574 1048.2 44.9429 1047.74 45.8359C1045.97 45.849 1044.2 45.8359 1042.43 45.7968C1039.46 45.18 1037.63 43.3961 1036.96 40.4453C1036.96 39.7943 1036.96 39.1432 1036.96 38.4922C1037.72 35.1175 1039.83 33.2816 1043.29 32.9843C1042.32 29.7333 1043.08 26.9468 1045.55 24.625C1048.9 22.1563 1052.28 22.0912 1055.71 24.4297Z" fill="white"/>
<path opacity="0.921" fill-rule="evenodd" clip-rule="evenodd" d="M1076.96 28.5703C1076.96 28.7787 1076.96 28.987 1076.96 29.1953C1076.87 29.3496 1076.74 29.4668 1076.57 29.5469C1075.92 29.599 1075.27 29.599 1074.62 29.5469C1074.1 29.1042 1074.1 28.6615 1074.62 28.2188C1075.27 28.1667 1075.92 28.1667 1076.57 28.2188C1076.74 28.2988 1076.87 28.416 1076.96 28.5703Z" fill="#FCD01F"/>
<path fill-rule="evenodd" clip-rule="evenodd" d="M1055.24 35.0547C1056.32 36.7625 1057.16 38.5855 1057.78 40.5234C1058.22 41.7467 1058 42.8274 1057.12 43.7656C1056.22 44.457 1055.23 44.6133 1054.15 44.2344C1052.92 43.5369 1052.41 42.4822 1052.62 41.0703C1053.24 38.9528 1054.11 36.9476 1055.24 35.0547Z" fill="#A3D4F6"/>
<path opacity="0.98" fill-rule="evenodd" clip-rule="evenodd" d="M1064.07 45.8359C1064.58 46.8728 1064.8 47.9666 1064.73 49.1172C1064.21 50.7927 1063.08 51.4828 1061.34 51.1875C1059.83 50.6718 1059.17 49.6171 1059.34 48.0234C1059.51 47.2751 1059.73 46.5459 1060.01 45.8359C1060.63 44.4548 1061.32 43.1007 1062.08 41.7734C1062.81 43.1035 1063.47 44.4577 1064.07 45.8359Z" fill="#A3D4F6"/>
<path opacity="0.977" fill-rule="evenodd" clip-rule="evenodd" d="M1050.63 45.8359C1051.15 46.9105 1051.56 48.0303 1051.84 49.1953C1052.09 50.7952 1051.48 51.902 1050.01 52.5156C1048.34 52.8582 1047.18 52.2463 1046.53 50.6797C1046.38 50.1323 1046.38 49.5854 1046.53 49.0391C1046.82 47.9252 1047.22 46.8576 1047.74 45.8359C1048.2 44.9429 1048.68 44.0574 1049.19 43.1797C1049.66 44.0795 1050.14 44.965 1050.63 45.8359Z" fill="#A3D4F6"/>
</g>
<path d="M79.5 466C79.5 466 187 332.5 226.5 332.5C266 332.5 333 399.5 375.5 399.5C418 399.5 549.5 198 596.5 198C643.5 198 793 532.5 833 532.5C873 532.5 913.5 399.5 980 399.5C1046.5 399.5 1068.27 358.423 1129 350" stroke="url(#paint0_linear_334_1142)" stroke-width="6" stroke-linecap="round"/>
<path d="M223.91 333C184.166 333 76 469 76 469V671H604H1132V352C1070.89 360.423 1047.91 401 981 401C914.088 401 874.414 535.5 834.167 535.5C793.919 535.5 643.493 201 596.202 201C548.911 201 416.596 400 373.833 400C331.07 400 263.655 333 223.91 333Z" fill="url(#paint1_linear_334_1142)"/>
<circle cx="152.5" cy="383.5" r="7.5" fill="white"/>
<circle cx="298.5" cy="364.5" r="7.5" fill="white"/>
<circle cx="454.5" cy="333.5" r="7.5" fill="white"/>
<circle cx="603.5" cy="197.5" r="7.5" fill="white"/>
<circle cx="756.5" cy="435.5" r="7.5" fill="white"/>
<circle cx="908.5" cy="448.5" r="7.5" fill="white"/>
<circle cx="1058.5" cy="375.5" r="7.5" fill="white"/>
<defs>
<linearGradient id="paint0_linear_334_1142" x1="604" y1="263.5" x2="604.25" y2="532.5" gradientUnits="userSpaceOnUse">
<stop stop-color="#1D6294"/>
<stop offset="0.28125" stop-color="#3F7898" stop-opacity="0.71875"/>
<stop offset="0.480219" stop-color="#299ADA" stop-opacity="0.416667"/>
<stop offset="0.856562" stop-color="#8AD0DF"/>
<stop offset="0.973958" stop-color="#B0E5F0"/>
</linearGradient>
<linearGradient id="paint1_linear_334_1142" x1="604" y1="201" x2="604" y2="671" gradientUnits="userSpaceOnUse">
<stop stop-color="#216596"/>
<stop offset="0.262637" stop-color="#4482B0" stop-opacity="0.734375"/>
<stop offset="1" stop-color="#A3D3F6" stop-opacity="0"/>
</linearGradient>
<clipPath id="clip0_334_1142">
<rect width="40" height="40" fill="white" transform="translate(131 14)"/>
</clipPath>
<clipPath id="clip1_334_1142">
<rect width="40" height="40" fill="white" transform="translate(886 14)"/>
</clipPath>
<clipPath id="clip2_334_1142">
<rect width="40" height="40" fill="white" transform="translate(282 14)"/>
</clipPath>
<clipPath id="clip3_334_1142">
<rect width="40" height="40" fill="white" transform="translate(735 14)"/>
</clipPath>
<clipPath id="clip4_334_1142">
<rect width="40" height="40" fill="white" transform="translate(433 14)"/>
</clipPath>
<clipPath id="clip5_334_1142">
<rect width="40" height="40" fill="white" transform="translate(584 14)"/>
</clipPath>
<clipPath id="clip6_334_1142">
<rect width="40" height="40" fill="white" transform="translate(1037 14)"/>
</clipPath>
</defs>
</svg>
