<svg width="1163" height="726" viewBox="0 0 1163 726" fill="none" xmlns="http://www.w3.org/2000/svg">
<rect x="106.5" y="0.5" width="1056" height="670" rx="29.5" stroke="#ECECEC" stroke-opacity="0.34"/>
<line x1="106" y1="134.5" x2="1163" y2="134.5" stroke="#ECECEC" stroke-opacity="0.34"/>
<line x1="106" y1="201.5" x2="1163" y2="201.5" stroke="#ECECEC" stroke-opacity="0.34"/>
<line x1="106" y1="67.5" x2="1163" y2="67.4999" stroke="#ECECEC" stroke-opacity="0.34"/>
<line x1="106" y1="268.5" x2="1163" y2="268.5" stroke="#ECECEC" stroke-opacity="0.34"/>
<line x1="106" y1="335.5" x2="1163" y2="335.5" stroke="#ECECEC" stroke-opacity="0.34"/>
<line x1="106" y1="402.5" x2="1163" y2="402.5" stroke="#ECECEC" stroke-opacity="0.34"/>
<line x1="106" y1="469.5" x2="1163" y2="469.5" stroke="#ECECEC" stroke-opacity="0.34"/>
<line x1="106" y1="536.5" x2="1163" y2="536.5" stroke="#ECECEC" stroke-opacity="0.34"/>
<line x1="106" y1="603.5" x2="1163" y2="603.5" stroke="#ECECEC" stroke-opacity="0.34"/>
<line x1="257.5" y1="1" x2="257.5" y2="671" stroke="#ECECEC" stroke-opacity="0.34"/>
<line x1="408.5" y1="1" x2="408.5" y2="671" stroke="#ECECEC" stroke-opacity="0.34"/>
<line x1="559.5" y1="1" x2="559.5" y2="671" stroke="#ECECEC" stroke-opacity="0.34"/>
<line x1="710.5" y1="1" x2="710.5" y2="671" stroke="#ECECEC" stroke-opacity="0.34"/>
<line x1="861.5" y1="1" x2="861.5" y2="671" stroke="#ECECEC" stroke-opacity="0.34"/>
<line x1="1012.5" y1="1" x2="1012.5" y2="671" stroke="#ECECEC" stroke-opacity="0.34"/>
<path d="M8.2 665.216C6.28 665.216 4.808 664.472 3.784 662.984C2.76 661.496 2.248 659.344 2.248 656.528C2.248 653.696 2.76 651.544 3.784 650.072C4.808 648.6 6.28 647.864 8.2 647.864C10.136 647.864 11.608 648.6 12.616 650.072C13.64 651.544 14.152 653.688 14.152 656.504C14.152 659.336 13.64 661.496 12.616 662.984C11.592 664.472 10.12 665.216 8.2 665.216ZM8.2 663.488C9.544 663.488 10.544 662.92 11.2 661.784C11.856 660.648 12.184 658.888 12.184 656.504C12.184 654.104 11.856 652.352 11.2 651.248C10.544 650.128 9.544 649.568 8.2 649.568C6.872 649.568 5.872 650.128 5.2 651.248C4.544 652.368 4.216 654.12 4.216 656.504C4.216 658.888 4.544 660.648 5.2 661.784C5.872 662.92 6.872 663.488 8.2 663.488ZM23.5238 665V652.976H24.7718L29.4278 661.448L34.1318 652.976H35.3558V665H34.0358V654.584H34.5398L29.8358 663.08H29.0438L24.3398 654.584H24.8438V665H23.5238ZM39.391 665V652.976H40.639L45.295 661.448L49.999 652.976H51.223V665H49.903V654.584H50.407L45.703 663.08H44.911L40.207 654.584H40.711V665H39.391Z" fill="white"/>
<path d="M8.2 598.216C6.28 598.216 4.808 597.472 3.784 595.984C2.76 594.496 2.248 592.344 2.248 589.528C2.248 586.696 2.76 584.544 3.784 583.072C4.808 581.6 6.28 580.864 8.2 580.864C10.136 580.864 11.608 581.6 12.616 583.072C13.64 584.544 14.152 586.688 14.152 589.504C14.152 592.336 13.64 594.496 12.616 595.984C11.592 597.472 10.12 598.216 8.2 598.216ZM8.2 596.488C9.544 596.488 10.544 595.92 11.2 594.784C11.856 593.648 12.184 591.888 12.184 589.504C12.184 587.104 11.856 585.352 11.2 584.248C10.544 583.128 9.544 582.568 8.2 582.568C6.872 582.568 5.872 583.128 5.2 584.248C4.544 585.368 4.216 587.12 4.216 589.504C4.216 591.888 4.544 593.648 5.2 594.784C5.872 595.92 6.872 596.488 8.2 596.488ZM17.9106 600.736L16.9986 600.04C17.4306 599.592 17.7106 599.168 17.8386 598.768C17.9826 598.384 18.0546 597.992 18.0546 597.592L18.4866 598H16.9026V595.552H19.3506V597.28C19.3506 597.92 19.2466 598.52 19.0386 599.08C18.8306 599.656 18.4546 600.208 17.9106 600.736ZM23.8996 598V596.296H27.8836V582.784H28.9396L24.2836 585.688V583.696L28.4356 581.08H29.8756V596.296H33.6196V598H23.8996ZM43.3754 598V585.976H44.6234L49.2794 594.448L53.9834 585.976H55.2074V598H53.8874V587.584H54.3914L49.6874 596.08H48.8954L44.1914 587.584H44.6954V598H43.3754ZM59.2426 598V585.976H60.4906L65.1466 594.448L69.8506 585.976H71.0746V598H69.7546V587.584H70.2586L65.5546 596.08H64.7626L60.0586 587.584H60.5626V598H59.2426Z" fill="white"/>
<path d="M7.2 531.216C5.28 531.216 3.808 530.472 2.784 528.984C1.76 527.496 1.248 525.344 1.248 522.528C1.248 519.696 1.76 517.544 2.784 516.072C3.808 514.6 5.28 513.864 7.2 513.864C9.136 513.864 10.608 514.6 11.616 516.072C12.64 517.544 13.152 519.688 13.152 522.504C13.152 525.336 12.64 527.496 11.616 528.984C10.592 530.472 9.12 531.216 7.2 531.216ZM7.2 529.488C8.544 529.488 9.544 528.92 10.2 527.784C10.856 526.648 11.184 524.888 11.184 522.504C11.184 520.104 10.856 518.352 10.2 517.248C9.544 516.128 8.544 515.568 7.2 515.568C5.872 515.568 4.872 516.128 4.2 517.248C3.544 518.368 3.216 520.12 3.216 522.504C3.216 524.888 3.544 526.648 4.2 527.784C4.872 528.92 5.872 529.488 7.2 529.488ZM16.9106 533.736L15.9986 533.04C16.4306 532.592 16.7106 532.168 16.8386 531.768C16.9826 531.384 17.0546 530.992 17.0546 530.592L17.4866 531H15.9026V528.552H18.3506V530.28C18.3506 530.92 18.2466 531.52 18.0386 532.08C17.8306 532.656 17.4546 533.208 16.9106 533.736ZM21.9156 531V529.512L27.9156 523.248C28.6996 522.432 29.2836 521.656 29.6676 520.92C30.0676 520.168 30.2676 519.392 30.2676 518.592C30.2676 517.616 29.9636 516.88 29.3556 516.384C28.7476 515.872 27.8676 515.616 26.7156 515.616C25.8196 515.616 24.9876 515.776 24.2196 516.096C23.4676 516.4 22.7396 516.888 22.0356 517.56L21.3156 516C21.9556 515.36 22.7716 514.848 23.7636 514.464C24.7556 514.064 25.8036 513.864 26.9076 513.864C28.6196 513.864 29.9396 514.264 30.8676 515.064C31.7956 515.848 32.2596 516.968 32.2596 518.424C32.2596 519.496 31.9956 520.52 31.4676 521.496C30.9556 522.456 30.2036 523.448 29.2116 524.472L23.9076 529.848V529.296H32.9796V531H21.9156ZM42.3754 531V518.976H43.6234L48.2794 527.448L52.9834 518.976H54.2074V531H52.8874V520.584H53.3914L48.6874 529.08H47.8954L43.1914 520.584H43.6954V531H42.3754ZM58.2426 531V518.976H59.4906L64.1466 527.448L68.8506 518.976H70.0746V531H68.7546V520.584H69.2586L64.5546 529.08H63.7626L59.0586 520.584H59.5626V531H58.2426Z" fill="white"/>
<path d="M7.2 464.216C5.28 464.216 3.808 463.472 2.784 461.984C1.76 460.496 1.248 458.344 1.248 455.528C1.248 452.696 1.76 450.544 2.784 449.072C3.808 447.6 5.28 446.864 7.2 446.864C9.136 446.864 10.608 447.6 11.616 449.072C12.64 450.544 13.152 452.688 13.152 455.504C13.152 458.336 12.64 460.496 11.616 461.984C10.592 463.472 9.12 464.216 7.2 464.216ZM7.2 462.488C8.544 462.488 9.544 461.92 10.2 460.784C10.856 459.648 11.184 457.888 11.184 455.504C11.184 453.104 10.856 451.352 10.2 450.248C9.544 449.128 8.544 448.568 7.2 448.568C5.872 448.568 4.872 449.128 4.2 450.248C3.544 451.368 3.216 453.12 3.216 455.504C3.216 457.888 3.544 459.648 4.2 460.784C4.872 461.92 5.872 462.488 7.2 462.488ZM16.9106 466.736L15.9986 466.04C16.4306 465.592 16.7106 465.168 16.8386 464.768C16.9826 464.384 17.0546 463.992 17.0546 463.592L17.4866 464H15.9026V461.552H18.3506V463.28C18.3506 463.92 18.2466 464.52 18.0386 465.08C17.8306 465.656 17.4546 466.208 16.9106 466.736ZM26.9556 464.216C25.8196 464.216 24.7316 464.04 23.6916 463.688C22.6516 463.336 21.7796 462.832 21.0756 462.176L21.8196 460.64C22.6036 461.28 23.4116 461.744 24.2436 462.032C25.0756 462.32 25.9716 462.464 26.9316 462.464C28.1956 462.464 29.1556 462.2 29.8116 461.672C30.4676 461.128 30.7956 460.336 30.7956 459.296C30.7956 458.304 30.4596 457.552 29.7876 457.04C29.1156 456.512 28.1316 456.248 26.8356 456.248H24.2916V454.592H26.6676C27.7876 454.592 28.6756 454.304 29.3316 453.728C29.9876 453.152 30.3156 452.368 30.3156 451.376C30.3156 450.48 30.0116 449.8 29.4036 449.336C28.8116 448.856 27.9556 448.616 26.8356 448.616C25.0116 448.616 23.4356 449.264 22.1076 450.56L21.3636 449C22.0196 448.328 22.8436 447.808 23.8356 447.44C24.8276 447.056 25.8676 446.864 26.9556 446.864C28.6196 446.864 29.9236 447.248 30.8676 448.016C31.8116 448.784 32.2836 449.848 32.2836 451.208C32.2836 452.248 31.9876 453.144 31.3956 453.896C30.8036 454.632 30.0036 455.136 28.9956 455.408V455.144C30.1956 455.336 31.1236 455.816 31.7796 456.584C32.4356 457.336 32.7636 458.288 32.7636 459.44C32.7636 460.912 32.2436 462.08 31.2036 462.944C30.1796 463.792 28.7636 464.216 26.9556 464.216ZM42.3754 464V451.976H43.6234L48.2794 460.448L52.9834 451.976H54.2074V464H52.8874V453.584H53.3914L48.6874 462.08H47.8954L43.1914 453.584H43.6954V464H42.3754ZM58.2426 464V451.976H59.4906L64.1466 460.448L68.8506 451.976H70.0746V464H68.7546V453.584H69.2586L64.5546 462.08H63.7626L59.0586 453.584H59.5626V464H58.2426Z" fill="white"/>
<path d="M7.2 397.216C5.28 397.216 3.808 396.472 2.784 394.984C1.76 393.496 1.248 391.344 1.248 388.528C1.248 385.696 1.76 383.544 2.784 382.072C3.808 380.6 5.28 379.864 7.2 379.864C9.136 379.864 10.608 380.6 11.616 382.072C12.64 383.544 13.152 385.688 13.152 388.504C13.152 391.336 12.64 393.496 11.616 394.984C10.592 396.472 9.12 397.216 7.2 397.216ZM7.2 395.488C8.544 395.488 9.544 394.92 10.2 393.784C10.856 392.648 11.184 390.888 11.184 388.504C11.184 386.104 10.856 384.352 10.2 383.248C9.544 382.128 8.544 381.568 7.2 381.568C5.872 381.568 4.872 382.128 4.2 383.248C3.544 384.368 3.216 386.12 3.216 388.504C3.216 390.888 3.544 392.648 4.2 393.784C4.872 394.92 5.872 395.488 7.2 395.488ZM16.9106 399.736L15.9986 399.04C16.4306 398.592 16.7106 398.168 16.8386 397.768C16.9826 397.384 17.0546 396.992 17.0546 396.592L17.4866 397H15.9026V394.552H18.3506V396.28C18.3506 396.92 18.2466 397.52 18.0386 398.08C17.8306 398.656 17.4546 399.208 16.9106 399.736ZM29.1156 397V393.328H21.0516V391.888L29.4276 380.08H31.0596V391.72H33.6516V393.328H31.0596V397H29.1156ZM29.1156 391.72V382.432H29.6436L22.6836 392.224V391.72H29.1156ZM42.3754 397V384.976H43.6234L48.2794 393.448L52.9834 384.976H54.2074V397H52.8874V386.584H53.3914L48.6874 395.08H47.8954L43.1914 386.584H43.6954V397H42.3754ZM58.2426 397V384.976H59.4906L64.1466 393.448L68.8506 384.976H70.0746V397H68.7546V386.584H69.2586L64.5546 395.08H63.7626L59.0586 386.584H59.5626V397H58.2426Z" fill="white"/>
<path d="M7.2 330.216C5.28 330.216 3.808 329.472 2.784 327.984C1.76 326.496 1.248 324.344 1.248 321.528C1.248 318.696 1.76 316.544 2.784 315.072C3.808 313.6 5.28 312.864 7.2 312.864C9.136 312.864 10.608 313.6 11.616 315.072C12.64 316.544 13.152 318.688 13.152 321.504C13.152 324.336 12.64 326.496 11.616 327.984C10.592 329.472 9.12 330.216 7.2 330.216ZM7.2 328.488C8.544 328.488 9.544 327.92 10.2 326.784C10.856 325.648 11.184 323.888 11.184 321.504C11.184 319.104 10.856 317.352 10.2 316.248C9.544 315.128 8.544 314.568 7.2 314.568C5.872 314.568 4.872 315.128 4.2 316.248C3.544 317.368 3.216 319.12 3.216 321.504C3.216 323.888 3.544 325.648 4.2 326.784C4.872 327.92 5.872 328.488 7.2 328.488ZM16.9106 332.736L15.9986 332.04C16.4306 331.592 16.7106 331.168 16.8386 330.768C16.9826 330.384 17.0546 329.992 17.0546 329.592L17.4866 330H15.9026V327.552H18.3506V329.28C18.3506 329.92 18.2466 330.52 18.0386 331.08C17.8306 331.656 17.4546 332.208 16.9106 332.736ZM27.3636 330.216C26.6276 330.216 25.9076 330.136 25.2036 329.976C24.4996 329.816 23.8356 329.584 23.2116 329.28C22.6036 328.976 22.0676 328.608 21.6036 328.176L22.3476 326.64C23.1316 327.264 23.9316 327.728 24.7476 328.032C25.5636 328.32 26.4356 328.464 27.3636 328.464C28.5796 328.464 29.5316 328.136 30.2196 327.48C30.9076 326.824 31.2516 325.96 31.2516 324.888C31.2516 323.784 30.9236 322.88 30.2676 322.176C29.6116 321.472 28.6996 321.12 27.5316 321.12C26.6996 321.12 25.9556 321.288 25.2996 321.624C24.6436 321.944 24.0756 322.448 23.5956 323.136H22.1556V313.08H32.1876V314.76H24.0756V321.504H23.5476C23.9796 320.832 24.5716 320.32 25.3236 319.968C26.0916 319.6 26.9556 319.416 27.9156 319.416C29.0036 319.416 29.9396 319.64 30.7236 320.088C31.5236 320.536 32.1396 321.16 32.5716 321.96C33.0036 322.76 33.2196 323.696 33.2196 324.768C33.2196 325.84 32.9796 326.792 32.4996 327.624C32.0356 328.44 31.3636 329.08 30.4836 329.544C29.6196 329.992 28.5796 330.216 27.3636 330.216ZM42.3754 330V317.976H43.6234L48.2794 326.448L52.9834 317.976H54.2074V330H52.8874V319.584H53.3914L48.6874 328.08H47.8954L43.1914 319.584H43.6954V330H42.3754ZM58.2426 330V317.976H59.4906L64.1466 326.448L68.8506 317.976H70.0746V330H68.7546V319.584H69.2586L64.5546 328.08H63.7626L59.0586 319.584H59.5626V330H58.2426Z" fill="white"/>
<path d="M7.2 263.216C5.28 263.216 3.808 262.472 2.784 260.984C1.76 259.496 1.248 257.344 1.248 254.528C1.248 251.696 1.76 249.544 2.784 248.072C3.808 246.6 5.28 245.864 7.2 245.864C9.136 245.864 10.608 246.6 11.616 248.072C12.64 249.544 13.152 251.688 13.152 254.504C13.152 257.336 12.64 259.496 11.616 260.984C10.592 262.472 9.12 263.216 7.2 263.216ZM7.2 261.488C8.544 261.488 9.544 260.92 10.2 259.784C10.856 258.648 11.184 256.888 11.184 254.504C11.184 252.104 10.856 250.352 10.2 249.248C9.544 248.128 8.544 247.568 7.2 247.568C5.872 247.568 4.872 248.128 4.2 249.248C3.544 250.368 3.216 252.12 3.216 254.504C3.216 256.888 3.544 258.648 4.2 259.784C4.872 260.92 5.872 261.488 7.2 261.488ZM16.9106 265.736L15.9986 265.04C16.4306 264.592 16.7106 264.168 16.8386 263.768C16.9826 263.384 17.0546 262.992 17.0546 262.592L17.4866 263H15.9026V260.552H18.3506V262.28C18.3506 262.92 18.2466 263.52 18.0386 264.08C17.8306 264.656 17.4546 265.208 16.9106 265.736ZM27.6036 263.216C25.5556 263.216 23.9716 262.496 22.8516 261.056C21.7476 259.6 21.1956 257.568 21.1956 254.96C21.1956 253.008 21.4756 251.36 22.0356 250.016C22.5956 248.656 23.3956 247.624 24.4356 246.92C25.4756 246.216 26.7316 245.864 28.2036 245.864C29.0836 245.864 29.9716 246.048 30.8676 246.416C31.7636 246.768 32.4996 247.264 33.0756 247.904L32.3556 249.44C31.7476 248.816 31.0836 248.36 30.3636 248.072C29.6436 247.768 28.9156 247.616 28.1796 247.616C26.5476 247.616 25.2916 248.2 24.4116 249.368C23.5476 250.52 23.1156 252.256 23.1156 254.576V256.808H22.8996C23.0116 255.896 23.2836 255.112 23.7156 254.456C24.1636 253.784 24.7476 253.272 25.4676 252.92C26.1876 252.568 26.9876 252.392 27.8676 252.392C28.8916 252.392 29.7956 252.616 30.5796 253.064C31.3636 253.512 31.9796 254.144 32.4276 254.96C32.8756 255.76 33.0996 256.68 33.0996 257.72C33.0996 258.776 32.8676 259.72 32.4036 260.552C31.9396 261.384 31.2916 262.04 30.4596 262.52C29.6276 262.984 28.6756 263.216 27.6036 263.216ZM27.4596 261.536C28.1956 261.536 28.8436 261.384 29.4036 261.08C29.9796 260.76 30.4196 260.32 30.7236 259.76C31.0436 259.184 31.2036 258.528 31.2036 257.792C31.2036 257.056 31.0436 256.408 30.7236 255.848C30.4196 255.288 29.9796 254.848 29.4036 254.528C28.8436 254.208 28.1956 254.048 27.4596 254.048C26.7236 254.048 26.0756 254.208 25.5156 254.528C24.9556 254.848 24.5156 255.288 24.1956 255.848C23.8916 256.408 23.7396 257.056 23.7396 257.792C23.7396 258.528 23.8916 259.184 24.1956 259.76C24.5156 260.32 24.9556 260.76 25.5156 261.08C26.0756 261.384 26.7236 261.536 27.4596 261.536ZM42.3754 263V250.976H43.6234L48.2794 259.448L52.9834 250.976H54.2074V263H52.8874V252.584H53.3914L48.6874 261.08H47.8954L43.1914 252.584H43.6954V263H42.3754ZM58.2426 263V250.976H59.4906L64.1466 259.448L68.8506 250.976H70.0746V263H68.7546V252.584H69.2586L64.5546 261.08H63.7626L59.0586 252.584H59.5626V263H58.2426Z" fill="white"/>
<path d="M7.2 196.216C5.28 196.216 3.808 195.472 2.784 193.984C1.76 192.496 1.248 190.344 1.248 187.528C1.248 184.696 1.76 182.544 2.784 181.072C3.808 179.6 5.28 178.864 7.2 178.864C9.136 178.864 10.608 179.6 11.616 181.072C12.64 182.544 13.152 184.688 13.152 187.504C13.152 190.336 12.64 192.496 11.616 193.984C10.592 195.472 9.12 196.216 7.2 196.216ZM7.2 194.488C8.544 194.488 9.544 193.92 10.2 192.784C10.856 191.648 11.184 189.888 11.184 187.504C11.184 185.104 10.856 183.352 10.2 182.248C9.544 181.128 8.544 180.568 7.2 180.568C5.872 180.568 4.872 181.128 4.2 182.248C3.544 183.368 3.216 185.12 3.216 187.504C3.216 189.888 3.544 191.648 4.2 192.784C4.872 193.92 5.872 194.488 7.2 194.488ZM16.9106 198.736L15.9986 198.04C16.4306 197.592 16.7106 197.168 16.8386 196.768C16.9826 196.384 17.0546 195.992 17.0546 195.592L17.4866 196H15.9026V193.552H18.3506V195.28C18.3506 195.92 18.2466 196.52 18.0386 197.08C17.8306 197.656 17.4546 198.208 16.9106 198.736ZM22.5636 196L30.8916 179.92V180.784H21.4356V179.08H32.6916V180.568L24.7476 196H22.5636ZM42.3754 196V183.976H43.6234L48.2794 192.448L52.9834 183.976H54.2074V196H52.8874V185.584H53.3914L48.6874 194.08H47.8954L43.1914 185.584H43.6954V196H42.3754ZM58.2426 196V183.976H59.4906L64.1466 192.448L68.8506 183.976H70.0746V196H68.7546V185.584H69.2586L64.5546 194.08H63.7626L59.0586 185.584H59.5626V196H58.2426Z" fill="white"/>
<path d="M7.2 129.216C5.28 129.216 3.808 128.472 2.784 126.984C1.76 125.496 1.248 123.344 1.248 120.528C1.248 117.696 1.76 115.544 2.784 114.072C3.808 112.6 5.28 111.864 7.2 111.864C9.136 111.864 10.608 112.6 11.616 114.072C12.64 115.544 13.152 117.688 13.152 120.504C13.152 123.336 12.64 125.496 11.616 126.984C10.592 128.472 9.12 129.216 7.2 129.216ZM7.2 127.488C8.544 127.488 9.544 126.92 10.2 125.784C10.856 124.648 11.184 122.888 11.184 120.504C11.184 118.104 10.856 116.352 10.2 115.248C9.544 114.128 8.544 113.568 7.2 113.568C5.872 113.568 4.872 114.128 4.2 115.248C3.544 116.368 3.216 118.12 3.216 120.504C3.216 122.888 3.544 124.648 4.2 125.784C4.872 126.92 5.872 127.488 7.2 127.488ZM16.9106 131.736L15.9986 131.04C16.4306 130.592 16.7106 130.168 16.8386 129.768C16.9826 129.384 17.0546 128.992 17.0546 128.592L17.4866 129H15.9026V126.552H18.3506V128.28C18.3506 128.92 18.2466 129.52 18.0386 130.08C17.8306 130.656 17.4546 131.208 16.9106 131.736ZM27.0516 129.216C25.1156 129.216 23.6196 128.808 22.5636 127.992C21.5076 127.16 20.9796 126 20.9796 124.512C20.9796 123.344 21.3396 122.376 22.0596 121.608C22.7796 120.824 23.7316 120.352 24.9156 120.192V120.552C23.8436 120.328 22.9876 119.84 22.3476 119.088C21.7076 118.32 21.3876 117.416 21.3876 116.376C21.3876 114.952 21.8916 113.848 22.8996 113.064C23.9076 112.264 25.2916 111.864 27.0516 111.864C28.8276 111.864 30.2196 112.264 31.2276 113.064C32.2356 113.848 32.7396 114.952 32.7396 116.376C32.7396 117.416 32.4356 118.32 31.8276 119.088C31.2356 119.856 30.4036 120.336 29.3316 120.528V120.192C30.4996 120.352 31.4276 120.824 32.1156 121.608C32.8036 122.376 33.1476 123.344 33.1476 124.512C33.1476 126 32.6196 127.16 31.5636 127.992C30.5076 128.808 29.0036 129.216 27.0516 129.216ZM27.0516 127.584C28.4596 127.584 29.5076 127.32 30.1956 126.792C30.8996 126.264 31.2516 125.464 31.2516 124.392C31.2516 123.336 30.8996 122.552 30.1956 122.04C29.5076 121.512 28.4596 121.248 27.0516 121.248C25.6436 121.248 24.5876 121.512 23.8836 122.04C23.1956 122.552 22.8516 123.336 22.8516 124.392C22.8516 125.464 23.2036 126.264 23.9076 126.792C24.6116 127.32 25.6596 127.584 27.0516 127.584ZM27.0516 119.616C28.2676 119.616 29.1956 119.344 29.8356 118.8C30.4916 118.256 30.8196 117.504 30.8196 116.544C30.8196 115.584 30.4916 114.84 29.8356 114.312C29.1956 113.768 28.2676 113.496 27.0516 113.496C25.8356 113.496 24.8996 113.768 24.2436 114.312C23.6036 114.84 23.2836 115.584 23.2836 116.544C23.2836 117.504 23.6036 118.256 24.2436 118.8C24.8996 119.344 25.8356 119.616 27.0516 119.616ZM42.3754 129V116.976H43.6234L48.2794 125.448L52.9834 116.976H54.2074V129H52.8874V118.584H53.3914L48.6874 127.08H47.8954L43.1914 118.584H43.6954V129H42.3754ZM58.2426 129V116.976H59.4906L64.1466 125.448L68.8506 116.976H70.0746V129H68.7546V118.584H69.2586L64.5546 127.08H63.7626L59.0586 118.584H59.5626V129H58.2426Z" fill="white"/>
<path d="M167.992 720V703.08H182.44V720H179.968V705.144H170.464V720H167.992ZM190.47 720V705.168H184.686V703.08H198.75V705.168H192.966V720H190.47Z" fill="white"/>
<path d="M326.6 720.216C324.872 720.216 323.4 719.864 322.184 719.16C320.968 718.456 320.032 717.456 319.376 716.16C318.736 714.848 318.416 713.304 318.416 711.528C318.416 709.752 318.736 708.216 319.376 706.92C320.032 705.624 320.968 704.624 322.184 703.92C323.4 703.216 324.872 702.864 326.6 702.864C327.8 702.864 328.872 703.04 329.816 703.392C330.76 703.744 331.584 704.256 332.288 704.928L331.424 706.92C330.656 706.264 329.904 705.792 329.168 705.504C328.448 705.216 327.608 705.072 326.648 705.072C324.824 705.072 323.432 705.632 322.472 706.752C321.512 707.872 321.032 709.464 321.032 711.528C321.032 713.592 321.512 715.192 322.472 716.328C323.432 717.448 324.824 718.008 326.648 718.008C327.608 718.008 328.448 717.864 329.168 717.576C329.904 717.288 330.656 716.808 331.424 716.136L332.288 718.128C331.584 718.8 330.76 719.32 329.816 719.688C328.872 720.04 327.8 720.216 326.6 720.216ZM335.422 720V703.08H347.134V705.048H337.822V710.376H342.982C344.822 710.376 346.246 710.776 347.254 711.576C348.278 712.376 348.79 713.568 348.79 715.152C348.79 716.736 348.278 717.944 347.254 718.776C346.246 719.592 344.822 720 342.982 720H335.422ZM337.822 718.032H342.718C343.966 718.032 344.886 717.8 345.478 717.336C346.07 716.856 346.366 716.136 346.366 715.176C346.366 714.216 346.07 713.504 345.478 713.04C344.886 712.576 343.966 712.344 342.718 712.344H337.822V718.032Z" fill="white"/>
<path d="M468.992 719V702.08H476.048C477.872 702.08 479.272 702.464 480.248 703.232C481.24 704 481.736 705.08 481.736 706.472C481.736 707.512 481.424 708.384 480.8 709.088C480.176 709.792 479.32 710.264 478.232 710.504V710.144C479.48 710.304 480.448 710.744 481.136 711.464C481.824 712.184 482.168 713.136 482.168 714.32C482.168 715.824 481.656 716.984 480.632 717.8C479.624 718.6 478.2 719 476.36 719H468.992ZM471.416 717.056H476.096C477.232 717.056 478.12 716.84 478.76 716.408C479.416 715.976 479.744 715.248 479.744 714.224C479.744 713.2 479.416 712.472 478.76 712.04C478.12 711.608 477.232 711.392 476.096 711.392H471.416V717.056ZM471.416 709.472H475.664C476.88 709.472 477.792 709.24 478.4 708.776C479.008 708.312 479.312 707.632 479.312 706.736C479.312 705.84 479.008 705.16 478.4 704.696C477.792 704.232 476.88 704 475.664 704H471.416V709.472ZM493.03 719.216C491.302 719.216 489.83 718.864 488.614 718.16C487.398 717.456 486.462 716.456 485.806 715.16C485.166 713.848 484.846 712.304 484.846 710.528C484.846 708.752 485.166 707.216 485.806 705.92C486.462 704.624 487.398 703.624 488.614 702.92C489.83 702.216 491.302 701.864 493.03 701.864C494.23 701.864 495.302 702.04 496.246 702.392C497.19 702.744 498.014 703.256 498.718 703.928L497.854 705.92C497.086 705.264 496.334 704.792 495.598 704.504C494.878 704.216 494.038 704.072 493.078 704.072C491.254 704.072 489.862 704.632 488.902 705.752C487.942 706.872 487.462 708.464 487.462 710.528C487.462 712.592 487.942 714.192 488.902 715.328C489.862 716.448 491.254 717.008 493.078 717.008C494.038 717.008 494.878 716.864 495.598 716.576C496.334 716.288 497.086 715.808 497.854 715.136L498.718 717.128C498.014 717.8 497.19 718.32 496.246 718.688C495.302 719.04 494.23 719.216 493.03 719.216Z" fill="white"/>
<path d="M618.992 719V702.08H633.44V719H630.968V704.144H621.464V719H618.992ZM637.414 719V702.08H639.91V709.376H649.414V702.08H651.91V719H649.414V711.464H639.91V719H637.414Z" fill="white"/>
<path d="M769.992 719V702.08H777.048C778.872 702.08 780.272 702.464 781.248 703.232C782.24 704 782.736 705.08 782.736 706.472C782.736 707.512 782.424 708.384 781.8 709.088C781.176 709.792 780.32 710.264 779.232 710.504V710.144C780.48 710.304 781.448 710.744 782.136 711.464C782.824 712.184 783.168 713.136 783.168 714.32C783.168 715.824 782.656 716.984 781.632 717.8C780.624 718.6 779.2 719 777.36 719H769.992ZM772.416 717.056H777.096C778.232 717.056 779.12 716.84 779.76 716.408C780.416 715.976 780.744 715.248 780.744 714.224C780.744 713.2 780.416 712.472 779.76 712.04C779.12 711.608 778.232 711.392 777.096 711.392H772.416V717.056ZM772.416 709.472H776.664C777.88 709.472 778.792 709.24 779.4 708.776C780.008 708.312 780.312 707.632 780.312 706.736C780.312 705.84 780.008 705.16 779.4 704.696C778.792 704.232 777.88 704 776.664 704H772.416V709.472ZM790.243 719V704.168H784.459V702.08H798.523V704.168H792.739V719H790.243Z" fill="white"/>
<path d="M932.6 719.216C930.872 719.216 929.4 718.864 928.184 718.16C926.968 717.456 926.032 716.456 925.376 715.16C924.736 713.848 924.416 712.304 924.416 710.528C924.416 708.752 924.736 707.216 925.376 705.92C926.032 704.624 926.968 703.624 928.184 702.92C929.4 702.216 930.872 701.864 932.6 701.864C933.8 701.864 934.872 702.04 935.816 702.392C936.76 702.744 937.584 703.256 938.288 703.928L937.424 705.92C936.656 705.264 935.904 704.792 935.168 704.504C934.448 704.216 933.608 704.072 932.648 704.072C930.824 704.072 929.432 704.632 928.472 705.752C927.512 706.872 927.032 708.464 927.032 710.528C927.032 712.592 927.512 714.192 928.472 715.328C929.432 716.448 930.824 717.008 932.648 717.008C933.608 717.008 934.448 716.864 935.168 716.576C935.904 716.288 936.656 715.808 937.424 715.136L938.288 717.128C937.584 717.8 936.76 718.32 935.816 718.688C934.872 719.04 933.8 719.216 932.6 719.216ZM941.422 719V702.08H948.598C950.406 702.08 951.79 702.52 952.75 703.4C953.726 704.264 954.214 705.464 954.214 707C954.214 708.536 953.726 709.744 952.75 710.624C951.79 711.504 950.406 711.944 948.598 711.944H943.918V719H941.422ZM943.918 709.952H948.334C949.47 709.952 950.326 709.696 950.902 709.184C951.478 708.672 951.766 707.944 951.766 707C951.766 706.072 951.478 705.352 950.902 704.84C950.326 704.328 949.47 704.072 948.334 704.072H943.918V709.952Z" fill="white"/>
<path d="M1084.36 719V712.088C1083.86 712.328 1083.24 712.52 1082.49 712.664C1081.74 712.808 1080.98 712.88 1080.23 712.88C1077.99 712.88 1076.28 712.304 1075.1 711.152C1073.93 709.984 1073.34 708.232 1073.34 705.896V702.08H1075.82V705.752C1075.82 707.48 1076.2 708.744 1076.97 709.544C1077.75 710.328 1078.93 710.72 1080.5 710.72C1081.17 710.72 1081.83 710.656 1082.49 710.528C1083.14 710.4 1083.77 710.184 1084.36 709.88V702.08H1086.83V719H1084.36ZM1094.88 719V704.168H1089.09V702.08H1103.16V704.168H1097.37V719H1094.88Z" fill="white"/>
<g clip-path="url(#clip0_334_1475)">
<path opacity="0.921" fill-rule="evenodd" clip-rule="evenodd" d="M183.32 13.9609C183.554 13.9609 183.789 13.9609 184.023 13.9609C184.187 14.112 184.304 14.2943 184.375 14.5078C184.427 15.4974 184.427 16.487 184.375 17.4766C184.185 18.0014 183.833 18.1707 183.32 17.9844C183.104 17.8467 182.987 17.6514 182.969 17.3984C182.896 16.3524 182.922 15.3107 183.047 14.2734C183.154 14.1793 183.245 14.0751 183.32 13.9609Z" fill="#FDCF20"/>
<path opacity="0.927" fill-rule="evenodd" clip-rule="evenodd" d="M171.211 17.3203C171.457 17.2978 171.691 17.3369 171.914 17.4375C172.865 18.388 173.815 19.3386 174.766 20.2891C175.067 20.9339 174.872 21.3245 174.18 21.461C174.039 21.4549 173.909 21.4159 173.789 21.3438C172.813 20.3672 171.836 19.3906 170.86 18.4141C170.642 17.9386 170.759 17.574 171.211 17.3203Z" fill="#FCD01F"/>
<path opacity="0.901" fill-rule="evenodd" clip-rule="evenodd" d="M195.586 17.3203C196.163 17.2299 196.501 17.4643 196.601 18.0235C196.574 18.26 196.483 18.4683 196.328 18.6485C195.482 19.4948 194.635 20.3412 193.789 21.1875C193.28 21.5997 192.851 21.5346 192.5 20.9922C192.438 20.7474 192.464 20.513 192.578 20.2891C193.572 19.2816 194.575 18.292 195.586 17.3203Z" fill="#FCD01F"/>
<path opacity="0.992" fill-rule="evenodd" clip-rule="evenodd" d="M190.117 38.1797C188.709 35.3524 186.417 34.0893 183.242 34.3906C182.771 34.4869 182.316 34.6301 181.875 34.8203C180.244 31.2271 177.445 29.4564 173.477 29.5078C173.853 25.9197 175.572 23.1984 178.633 21.3438C181.222 19.9604 183.93 19.6739 186.758 20.4844C190.829 21.9517 193.185 24.8293 193.828 29.1172C194.117 32.7816 192.88 35.8024 190.117 38.1797Z" fill="#FCD020"/>
<path opacity="0.996" fill-rule="evenodd" clip-rule="evenodd" d="M173.477 29.5078C177.445 29.4563 180.244 31.2271 181.875 34.8203C182.316 34.6301 182.771 34.4869 183.242 34.3906C186.417 34.0893 188.709 35.3523 190.117 38.1797C190.179 38.4696 190.257 38.7561 190.352 39.0391C193.683 38.6545 196.3 39.8264 198.203 42.5547C199.765 45.4044 199.66 48.1908 197.891 50.9141C196.618 52.5986 194.939 53.6142 192.852 53.9609C183.815 53.9609 174.779 53.9609 165.742 53.9609C162.539 53.3099 160.612 51.3828 159.961 48.1797C159.961 47.5026 159.961 46.8255 159.961 46.1484C160.752 42.7017 162.914 40.7486 166.445 40.2891C165.455 36.9474 166.184 34.0437 168.633 31.5781C170.018 30.3651 171.632 29.6751 173.477 29.5078Z" fill="white"/>
<path opacity="0.955" fill-rule="evenodd" clip-rule="evenodd" d="M199.961 29.8985C199.961 30.1068 199.961 30.3151 199.961 30.5235C199.871 30.6778 199.741 30.7949 199.57 30.875C198.45 30.9271 197.331 30.9271 196.211 30.875C195.678 30.3629 195.731 29.9202 196.367 29.5469C197.383 29.4948 198.398 29.4948 199.414 29.5469C199.627 29.6175 199.81 29.7347 199.961 29.8985Z" fill="#FDD020"/>
</g>
<g clip-path="url(#clip1_334_1475)">
<path opacity="0.921" fill-rule="evenodd" clip-rule="evenodd" d="M938.32 13.9609C938.554 13.9609 938.789 13.9609 939.023 13.9609C939.187 14.112 939.304 14.2943 939.375 14.5078C939.427 15.4974 939.427 16.487 939.375 17.4766C939.185 18.0014 938.833 18.1707 938.32 17.9844C938.104 17.8467 937.987 17.6514 937.969 17.3984C937.896 16.3524 937.922 15.3107 938.047 14.2734C938.154 14.1793 938.245 14.0751 938.32 13.9609Z" fill="#FDCF20"/>
<path opacity="0.927" fill-rule="evenodd" clip-rule="evenodd" d="M926.211 17.3203C926.457 17.2978 926.691 17.3369 926.914 17.4375C927.865 18.388 928.815 19.3386 929.766 20.2891C930.067 20.9339 929.872 21.3245 929.18 21.461C929.039 21.4549 928.909 21.4159 928.789 21.3438C927.813 20.3672 926.836 19.3906 925.86 18.4141C925.642 17.9386 925.759 17.574 926.211 17.3203Z" fill="#FCD01F"/>
<path opacity="0.901" fill-rule="evenodd" clip-rule="evenodd" d="M950.586 17.3203C951.163 17.2299 951.501 17.4643 951.601 18.0235C951.574 18.26 951.483 18.4683 951.328 18.6485C950.482 19.4948 949.635 20.3412 948.789 21.1875C948.28 21.5997 947.851 21.5346 947.5 20.9922C947.438 20.7474 947.464 20.513 947.578 20.2891C948.572 19.2816 949.575 18.292 950.586 17.3203Z" fill="#FCD01F"/>
<path opacity="0.992" fill-rule="evenodd" clip-rule="evenodd" d="M945.117 38.1797C943.709 35.3524 941.417 34.0893 938.242 34.3906C937.771 34.4869 937.316 34.6301 936.875 34.8203C935.244 31.2271 932.445 29.4564 928.477 29.5078C928.853 25.9197 930.572 23.1984 933.633 21.3438C936.222 19.9604 938.93 19.6739 941.758 20.4844C945.829 21.9517 948.185 24.8293 948.828 29.1172C949.117 32.7816 947.88 35.8024 945.117 38.1797Z" fill="#FCD020"/>
<path opacity="0.996" fill-rule="evenodd" clip-rule="evenodd" d="M928.477 29.5078C932.445 29.4563 935.244 31.2271 936.875 34.8203C937.316 34.6301 937.771 34.4869 938.242 34.3906C941.417 34.0893 943.709 35.3523 945.117 38.1797C945.179 38.4696 945.257 38.7561 945.352 39.0391C948.683 38.6545 951.3 39.8264 953.203 42.5547C954.765 45.4044 954.66 48.1908 952.891 50.9141C951.618 52.5986 949.939 53.6142 947.852 53.9609C938.815 53.9609 929.779 53.9609 920.742 53.9609C917.539 53.3099 915.612 51.3828 914.961 48.1797C914.961 47.5026 914.961 46.8255 914.961 46.1484C915.752 42.7017 917.914 40.7486 921.445 40.2891C920.455 36.9474 921.184 34.0437 923.633 31.5781C925.018 30.3651 926.632 29.6751 928.477 29.5078Z" fill="white"/>
<path opacity="0.955" fill-rule="evenodd" clip-rule="evenodd" d="M954.961 29.8985C954.961 30.1068 954.961 30.3151 954.961 30.5235C954.871 30.6778 954.741 30.7949 954.57 30.875C953.45 30.9271 952.331 30.9271 951.211 30.875C950.678 30.3629 950.731 29.9202 951.367 29.5469C952.383 29.4948 953.398 29.4948 954.414 29.5469C954.627 29.6175 954.81 29.7347 954.961 29.8985Z" fill="#FDD020"/>
</g>
<g clip-path="url(#clip2_334_1475)">
<path opacity="0.935" fill-rule="evenodd" clip-rule="evenodd" d="M330.648 13.9609C330.857 13.9609 331.065 13.9609 331.273 13.9609C331.445 14.0667 331.562 14.223 331.625 14.4297C331.677 16.3568 331.677 18.2839 331.625 20.2109C331.182 20.8359 330.74 20.8359 330.297 20.2109C330.245 18.2839 330.245 16.3568 330.297 14.4297C330.36 14.223 330.477 14.0667 330.648 13.9609Z" fill="#FCD01F"/>
<path opacity="0.949" fill-rule="evenodd" clip-rule="evenodd" d="M316.664 19.2735C316.91 19.2509 317.145 19.29 317.367 19.3906C318.76 20.7839 320.154 22.1771 321.547 23.5703C321.783 24.1662 321.588 24.5307 320.961 24.6641C320.82 24.6581 320.69 24.619 320.57 24.5469C319.177 23.1537 317.784 21.7604 316.391 20.3672C316.177 19.9193 316.268 19.5547 316.664 19.2735Z" fill="#FCD01F"/>
<path opacity="0.949" fill-rule="evenodd" clip-rule="evenodd" d="M344.711 19.2735C345.498 19.2593 345.771 19.6239 345.531 20.3672C344.138 21.7604 342.745 23.1537 341.351 24.5469C340.886 24.771 340.534 24.6538 340.297 24.1953C340.238 23.9764 340.264 23.768 340.375 23.5703C341.812 22.1202 343.257 20.6879 344.711 19.2735Z" fill="#FCD01F"/>
<path opacity="0.992" fill-rule="evenodd" clip-rule="evenodd" d="M330.883 22.5547C336.126 22.8117 339.733 25.3638 341.703 30.2109C343.143 35.1162 341.984 39.2959 338.227 42.75C334.26 45.6836 330.042 46.1002 325.57 44C321.769 41.7447 319.764 38.3984 319.555 33.9609C319.771 29.4505 321.828 26.078 325.727 23.8438C327.363 23.0439 329.082 22.6142 330.883 22.5547Z" fill="#FCD01F"/>
<path opacity="0.935" fill-rule="evenodd" clip-rule="evenodd" d="M310.961 34.2735C310.961 34.0651 310.961 33.8568 310.961 33.6485C311.067 33.4769 311.223 33.3597 311.43 33.2969C313.357 33.2448 315.284 33.2448 317.211 33.2969C317.836 33.7396 317.836 34.1823 317.211 34.625C315.284 34.6771 313.357 34.6771 311.43 34.625C311.223 34.5622 311.067 34.445 310.961 34.2735Z" fill="#FCD01F"/>
<path opacity="0.935" fill-rule="evenodd" clip-rule="evenodd" d="M350.961 33.6485C350.961 33.8568 350.961 34.0651 350.961 34.2735C350.855 34.445 350.699 34.5622 350.492 34.625C348.565 34.6771 346.638 34.6771 344.711 34.625C344.086 34.1823 344.086 33.7396 344.711 33.2969C346.638 33.2448 348.565 33.2448 350.492 33.2969C350.699 33.3597 350.855 33.4769 350.961 33.6485Z" fill="#FCD01F"/>
<path opacity="0.949" fill-rule="evenodd" clip-rule="evenodd" d="M320.727 43.2578C321.498 43.2601 321.772 43.6247 321.547 44.3516C320.128 45.7709 318.708 47.1901 317.289 48.6094C316.424 48.7341 316.125 48.3826 316.391 47.5547C317.828 46.1045 319.273 44.6722 320.727 43.2578Z" fill="#FCD01F"/>
<path opacity="0.949" fill-rule="evenodd" clip-rule="evenodd" d="M340.805 43.2578C340.999 43.242 341.181 43.2811 341.351 43.375C342.745 44.7682 344.138 46.1615 345.531 47.5547C345.797 48.3826 345.498 48.7341 344.633 48.6094C343.213 47.1901 341.794 45.7708 340.375 44.3516C340.175 43.843 340.318 43.4784 340.805 43.2578Z" fill="#FCD01F"/>
<path opacity="0.935" fill-rule="evenodd" clip-rule="evenodd" d="M331.273 53.9609C331.065 53.9609 330.857 53.9609 330.648 53.9609C330.477 53.8552 330.36 53.6989 330.297 53.4922C330.245 51.5651 330.245 49.638 330.297 47.7109C330.74 47.0859 331.182 47.0859 331.625 47.7109C331.677 49.638 331.677 51.5651 331.625 53.4922C331.562 53.6989 331.445 53.8552 331.273 53.9609Z" fill="#FCD01F"/>
</g>
<g clip-path="url(#clip3_334_1475)">
<path opacity="0.935" fill-rule="evenodd" clip-rule="evenodd" d="M783.648 13.9609C783.857 13.9609 784.065 13.9609 784.273 13.9609C784.445 14.0667 784.562 14.223 784.625 14.4297C784.677 16.3568 784.677 18.2839 784.625 20.2109C784.182 20.8359 783.74 20.8359 783.297 20.2109C783.245 18.2839 783.245 16.3568 783.297 14.4297C783.36 14.223 783.477 14.0667 783.648 13.9609Z" fill="#FCD01F"/>
<path opacity="0.949" fill-rule="evenodd" clip-rule="evenodd" d="M769.664 19.2735C769.91 19.2509 770.145 19.29 770.367 19.3906C771.76 20.7839 773.154 22.1771 774.547 23.5703C774.783 24.1662 774.588 24.5307 773.961 24.6641C773.82 24.6581 773.69 24.619 773.57 24.5469C772.177 23.1537 770.784 21.7604 769.391 20.3672C769.177 19.9193 769.268 19.5547 769.664 19.2735Z" fill="#FCD01F"/>
<path opacity="0.949" fill-rule="evenodd" clip-rule="evenodd" d="M797.711 19.2735C798.498 19.2593 798.771 19.6239 798.531 20.3672C797.138 21.7604 795.745 23.1537 794.351 24.5469C793.886 24.771 793.534 24.6538 793.297 24.1953C793.238 23.9764 793.264 23.768 793.375 23.5703C794.812 22.1202 796.257 20.6879 797.711 19.2735Z" fill="#FCD01F"/>
<path opacity="0.992" fill-rule="evenodd" clip-rule="evenodd" d="M783.883 22.5547C789.126 22.8117 792.733 25.3638 794.703 30.2109C796.143 35.1162 794.984 39.2959 791.227 42.75C787.26 45.6836 783.042 46.1002 778.57 44C774.769 41.7447 772.764 38.3984 772.555 33.9609C772.771 29.4505 774.828 26.078 778.727 23.8438C780.363 23.0439 782.082 22.6142 783.883 22.5547Z" fill="#FCD01F"/>
<path opacity="0.935" fill-rule="evenodd" clip-rule="evenodd" d="M763.961 34.2735C763.961 34.0651 763.961 33.8568 763.961 33.6485C764.067 33.4769 764.223 33.3597 764.43 33.2969C766.357 33.2448 768.284 33.2448 770.211 33.2969C770.836 33.7396 770.836 34.1823 770.211 34.625C768.284 34.6771 766.357 34.6771 764.43 34.625C764.223 34.5622 764.067 34.445 763.961 34.2735Z" fill="#FCD01F"/>
<path opacity="0.935" fill-rule="evenodd" clip-rule="evenodd" d="M803.961 33.6485C803.961 33.8568 803.961 34.0651 803.961 34.2735C803.855 34.445 803.699 34.5622 803.492 34.625C801.565 34.6771 799.638 34.6771 797.711 34.625C797.086 34.1823 797.086 33.7396 797.711 33.2969C799.638 33.2448 801.565 33.2448 803.492 33.2969C803.699 33.3597 803.855 33.4769 803.961 33.6485Z" fill="#FCD01F"/>
<path opacity="0.949" fill-rule="evenodd" clip-rule="evenodd" d="M773.727 43.2578C774.498 43.2601 774.772 43.6247 774.547 44.3516C773.128 45.7709 771.708 47.1901 770.289 48.6094C769.424 48.7341 769.125 48.3826 769.391 47.5547C770.828 46.1045 772.273 44.6722 773.727 43.2578Z" fill="#FCD01F"/>
<path opacity="0.949" fill-rule="evenodd" clip-rule="evenodd" d="M793.805 43.2578C793.999 43.242 794.181 43.2811 794.351 43.375C795.745 44.7682 797.138 46.1615 798.531 47.5547C798.797 48.3826 798.498 48.7341 797.633 48.6094C796.213 47.1901 794.794 45.7708 793.375 44.3516C793.175 43.843 793.318 43.4784 793.805 43.2578Z" fill="#FCD01F"/>
<path opacity="0.935" fill-rule="evenodd" clip-rule="evenodd" d="M784.273 53.9609C784.065 53.9609 783.857 53.9609 783.648 53.9609C783.477 53.8552 783.36 53.6989 783.297 53.4922C783.245 51.5651 783.245 49.638 783.297 47.7109C783.74 47.0859 784.182 47.0859 784.625 47.7109C784.677 49.638 784.677 51.5651 784.625 53.4922C784.562 53.6989 784.445 53.8552 784.273 53.9609Z" fill="#FCD01F"/>
</g>
<g clip-path="url(#clip4_334_1475)">
<path opacity="0.993" fill-rule="evenodd" clip-rule="evenodd" d="M501.961 37.7891C501.961 38.4922 501.961 39.1953 501.961 39.8984C501.184 43.6566 498.893 45.8311 495.086 46.4219C485.917 46.4989 476.751 46.4729 467.586 46.3438C464.474 45.5891 462.599 43.649 461.961 40.5234C461.961 39.8463 461.961 39.1693 461.961 38.4922C462.753 34.9425 464.967 32.9763 468.602 32.5938C467.472 28.8213 468.41 25.6702 471.414 23.1406C473.82 21.4669 476.425 21.0763 479.227 21.9688C481.605 22.9145 483.284 24.5681 484.266 26.9297C487.204 25.8283 489.704 26.4533 491.766 28.8047C492.311 29.5302 492.688 30.3376 492.898 31.2266C495.835 30.8813 498.296 31.7928 500.281 33.9609C501.183 35.0929 501.743 36.3689 501.961 37.7891Z" fill="white"/>
</g>
<g clip-path="url(#clip5_334_1475)">
<path opacity="0.953" fill-rule="evenodd" clip-rule="evenodd" d="M637.805 15.2891C638.186 15.2391 638.486 15.3693 638.703 15.6797C638.755 16.3307 638.755 16.9818 638.703 17.6328C638.413 18.0861 638.036 18.1773 637.57 17.9063C637.477 17.8358 637.411 17.7446 637.375 17.6328C637.323 17.0078 637.323 16.3828 637.375 15.7578C637.481 15.5607 637.624 15.4045 637.805 15.2891Z" fill="#FDD020"/>
<path opacity="0.917" fill-rule="evenodd" clip-rule="evenodd" d="M648.742 18.6484C649.503 18.7118 649.75 19.1024 649.484 19.8203C648.976 20.3281 648.469 20.8359 647.961 21.3438C647.078 21.5801 646.726 21.2546 646.906 20.3672C647.488 19.7454 648.1 19.1725 648.742 18.6484Z" fill="#FCD01F"/>
<path opacity="0.99" fill-rule="evenodd" clip-rule="evenodd" d="M647.414 32.6328C645.78 31.8373 644.061 31.5769 642.258 31.8515C641.744 29.7883 640.494 28.369 638.508 27.5937C637.023 27.0746 635.565 27.1397 634.133 27.789C633.827 27.2034 633.502 26.6305 633.156 26.0703C632.672 25.5121 632.19 24.9652 631.711 24.4297C634.177 20.738 637.588 19.3968 641.945 20.4062C644.958 21.4142 646.951 23.4324 647.922 26.4609C648.475 28.5808 648.306 30.638 647.414 32.6328Z" fill="#FCD020"/>
<path opacity="0.995" fill-rule="evenodd" clip-rule="evenodd" d="M631.711 24.4297C632.19 24.9652 632.672 25.5121 633.156 26.0703C633.502 26.6305 633.827 27.2034 634.133 27.789C635.565 27.1397 637.023 27.0746 638.508 27.5937C640.494 28.369 641.744 29.7883 642.258 31.8515C644.061 31.5769 645.78 31.8373 647.414 32.6328C650.079 34.3176 651.238 36.7395 650.891 39.8984C650.209 43.2368 648.19 45.2029 644.836 45.7968C643.248 45.8359 641.659 45.849 640.07 45.8359C639.472 44.4577 638.808 43.1035 638.078 41.7734C637.323 43.1007 636.633 44.4548 636.008 45.8359C632.883 45.8359 629.758 45.8359 626.633 45.8359C626.143 44.965 625.661 44.0795 625.188 43.1797C624.684 44.0574 624.202 44.9429 623.742 45.8359C621.971 45.849 620.2 45.8359 618.43 45.7968C615.456 45.18 613.633 43.3961 612.961 40.4453C612.961 39.7943 612.961 39.1432 612.961 38.4922C613.719 35.1175 615.828 33.2816 619.289 32.9843C618.324 29.7333 619.079 26.9468 621.555 24.625C624.896 22.1563 628.281 22.0912 631.711 24.4297Z" fill="white"/>
<path opacity="0.921" fill-rule="evenodd" clip-rule="evenodd" d="M652.961 28.5703C652.961 28.7787 652.961 28.987 652.961 29.1953C652.871 29.3496 652.741 29.4668 652.57 29.5469C651.919 29.599 651.268 29.599 650.617 29.5469C650.096 29.1042 650.096 28.6615 650.617 28.2188C651.268 28.1667 651.919 28.1667 652.57 28.2188C652.741 28.2988 652.871 28.416 652.961 28.5703Z" fill="#FCD01F"/>
<path fill-rule="evenodd" clip-rule="evenodd" d="M631.242 35.0547C632.317 36.7625 633.163 38.5855 633.781 40.5234C634.218 41.7467 633.996 42.8274 633.117 43.7656C632.216 44.457 631.226 44.6133 630.148 44.2344C628.921 43.5369 628.413 42.4822 628.625 41.0703C629.241 38.9528 630.113 36.9476 631.242 35.0547Z" fill="#A3D4F6"/>
<path opacity="0.98" fill-rule="evenodd" clip-rule="evenodd" d="M640.07 45.8359C640.576 46.8728 640.798 47.9666 640.734 49.1172C640.21 50.7927 639.077 51.4828 637.336 51.1875C635.834 50.6718 635.169 49.6171 635.344 48.0234C635.511 47.2751 635.732 46.5459 636.008 45.8359C636.633 44.4548 637.323 43.1007 638.078 41.7734C638.808 43.1035 639.472 44.4577 640.07 45.8359Z" fill="#A3D4F6"/>
<path opacity="0.977" fill-rule="evenodd" clip-rule="evenodd" d="M626.633 45.8359C627.152 46.9105 627.555 48.0303 627.844 49.1953C628.093 50.7952 627.481 51.902 626.008 52.5156C624.336 52.8582 623.177 52.2463 622.531 50.6797C622.38 50.1323 622.38 49.5854 622.531 49.0391C622.82 47.9252 623.224 46.8576 623.742 45.8359C624.202 44.9429 624.684 44.0574 625.188 43.1797C625.661 44.0795 626.143 44.965 626.633 45.8359Z" fill="#A3D4F6"/>
</g>
<g clip-path="url(#clip6_334_1475)">
<path opacity="0.953" fill-rule="evenodd" clip-rule="evenodd" d="M1090.8 15.2891C1091.19 15.2391 1091.49 15.3693 1091.7 15.6797C1091.76 16.3307 1091.76 16.9818 1091.7 17.6328C1091.41 18.0861 1091.04 18.1773 1090.57 17.9063C1090.48 17.8358 1090.41 17.7446 1090.38 17.6328C1090.32 17.0078 1090.32 16.3828 1090.38 15.7578C1090.48 15.5607 1090.62 15.4045 1090.8 15.2891Z" fill="#FDD020"/>
<path opacity="0.917" fill-rule="evenodd" clip-rule="evenodd" d="M1101.74 18.6484C1102.5 18.7118 1102.75 19.1024 1102.48 19.8203C1101.98 20.3281 1101.47 20.8359 1100.96 21.3438C1100.08 21.5801 1099.73 21.2546 1099.91 20.3672C1100.49 19.7454 1101.1 19.1725 1101.74 18.6484Z" fill="#FCD01F"/>
<path opacity="0.99" fill-rule="evenodd" clip-rule="evenodd" d="M1100.41 32.6328C1098.78 31.8373 1097.06 31.5769 1095.26 31.8515C1094.74 29.7883 1093.49 28.369 1091.51 27.5937C1090.02 27.0746 1088.56 27.1397 1087.13 27.789C1086.83 27.2034 1086.5 26.6305 1086.16 26.0703C1085.67 25.5121 1085.19 24.9652 1084.71 24.4297C1087.18 20.738 1090.59 19.3968 1094.95 20.4062C1097.96 21.4142 1099.95 23.4324 1100.92 26.4609C1101.48 28.5808 1101.31 30.638 1100.41 32.6328Z" fill="#FCD020"/>
<path opacity="0.995" fill-rule="evenodd" clip-rule="evenodd" d="M1084.71 24.4297C1085.19 24.9652 1085.67 25.5121 1086.16 26.0703C1086.5 26.6305 1086.83 27.2034 1087.13 27.789C1088.56 27.1397 1090.02 27.0746 1091.51 27.5937C1093.49 28.369 1094.74 29.7883 1095.26 31.8515C1097.06 31.5769 1098.78 31.8373 1100.41 32.6328C1103.08 34.3176 1104.24 36.7395 1103.89 39.8984C1103.21 43.2368 1101.19 45.2029 1097.84 45.7968C1096.25 45.8359 1094.66 45.849 1093.07 45.8359C1092.47 44.4577 1091.81 43.1035 1091.08 41.7734C1090.32 43.1007 1089.63 44.4548 1089.01 45.8359C1085.88 45.8359 1082.76 45.8359 1079.63 45.8359C1079.14 44.965 1078.66 44.0795 1078.19 43.1797C1077.68 44.0574 1077.2 44.9429 1076.74 45.8359C1074.97 45.849 1073.2 45.8359 1071.43 45.7968C1068.46 45.18 1066.63 43.3961 1065.96 40.4453C1065.96 39.7943 1065.96 39.1432 1065.96 38.4922C1066.72 35.1175 1068.83 33.2816 1072.29 32.9843C1071.32 29.7333 1072.08 26.9468 1074.55 24.625C1077.9 22.1563 1081.28 22.0912 1084.71 24.4297Z" fill="white"/>
<path opacity="0.921" fill-rule="evenodd" clip-rule="evenodd" d="M1105.96 28.5703C1105.96 28.7787 1105.96 28.987 1105.96 29.1953C1105.87 29.3496 1105.74 29.4668 1105.57 29.5469C1104.92 29.599 1104.27 29.599 1103.62 29.5469C1103.1 29.1042 1103.1 28.6615 1103.62 28.2188C1104.27 28.1667 1104.92 28.1667 1105.57 28.2188C1105.74 28.2988 1105.87 28.416 1105.96 28.5703Z" fill="#FCD01F"/>
<path fill-rule="evenodd" clip-rule="evenodd" d="M1084.24 35.0547C1085.32 36.7625 1086.16 38.5855 1086.78 40.5234C1087.22 41.7467 1087 42.8274 1086.12 43.7656C1085.22 44.457 1084.23 44.6133 1083.15 44.2344C1081.92 43.5369 1081.41 42.4822 1081.62 41.0703C1082.24 38.9528 1083.11 36.9476 1084.24 35.0547Z" fill="#A3D4F6"/>
<path opacity="0.98" fill-rule="evenodd" clip-rule="evenodd" d="M1093.07 45.8359C1093.58 46.8728 1093.8 47.9666 1093.73 49.1172C1093.21 50.7927 1092.08 51.4828 1090.34 51.1875C1088.83 50.6718 1088.17 49.6171 1088.34 48.0234C1088.51 47.2751 1088.73 46.5459 1089.01 45.8359C1089.63 44.4548 1090.32 43.1007 1091.08 41.7734C1091.81 43.1035 1092.47 44.4577 1093.07 45.8359Z" fill="#A3D4F6"/>
<path opacity="0.977" fill-rule="evenodd" clip-rule="evenodd" d="M1079.63 45.8359C1080.15 46.9105 1080.56 48.0303 1080.84 49.1953C1081.09 50.7952 1080.48 51.902 1079.01 52.5156C1077.34 52.8582 1076.18 52.2463 1075.53 50.6797C1075.38 50.1323 1075.38 49.5854 1075.53 49.0391C1075.82 47.9252 1076.22 46.8576 1076.74 45.8359C1077.2 44.9429 1077.68 44.0574 1078.19 43.1797C1078.66 44.0795 1079.14 44.965 1079.63 45.8359Z" fill="#A3D4F6"/>
</g>
<path d="M153 365.5C153 349.76 165.76 337 181.5 337C197.24 337 210 349.76 210 365.5V670H153V365.5Z" fill="url(#paint0_linear_334_1475)"/>
<path d="M304 566.5C304 550.76 316.76 538 332.5 538C348.24 538 361 550.76 361 566.5V670H304V566.5Z" fill="url(#paint1_linear_334_1475)"/>
<path d="M455 298.5C455 282.76 467.76 270 483.5 270C499.24 270 512 282.76 512 298.5V670H455V298.5Z" fill="url(#paint2_linear_334_1475)"/>
<path d="M606 231.5C606 215.76 618.76 203 634.5 203C650.24 203 663 215.76 663 231.5V670H606V231.5Z" fill="url(#paint3_linear_334_1475)"/>
<path d="M757 542.5C757 526.76 769.76 514 785.5 514C801.24 514 814 526.76 814 542.5V670H757V542.5Z" fill="url(#paint4_linear_334_1475)"/>
<path d="M908 475.5C908 459.76 920.76 447 936.5 447C952.24 447 965 459.76 965 475.5V670H908V475.5Z" fill="url(#paint5_linear_334_1475)"/>
<path d="M1059 164.5C1059 148.76 1071.76 136 1087.5 136C1103.24 136 1116 148.76 1116 164.5V670H1059V164.5Z" fill="url(#paint6_linear_334_1475)"/>
<defs>
<linearGradient id="paint0_linear_334_1475" x1="181.5" y1="337" x2="181.5" y2="670" gradientUnits="userSpaceOnUse">
<stop stop-color="#1969B4" stop-opacity="0.484375"/>
<stop offset="0.496099" stop-color="#66A1D7" stop-opacity="0.484375"/>
<stop offset="0.916667" stop-color="#96E6FF" stop-opacity="0.484375"/>
</linearGradient>
<linearGradient id="paint1_linear_334_1475" x1="332.5" y1="538" x2="332.5" y2="670" gradientUnits="userSpaceOnUse">
<stop stop-color="#1969B4" stop-opacity="0.484375"/>
<stop offset="0.496099" stop-color="#66A1D7" stop-opacity="0.484375"/>
<stop offset="0.916667" stop-color="#96E6FF" stop-opacity="0.484375"/>
</linearGradient>
<linearGradient id="paint2_linear_334_1475" x1="483.5" y1="270" x2="483.5" y2="670" gradientUnits="userSpaceOnUse">
<stop stop-color="#1969B4" stop-opacity="0.484375"/>
<stop offset="0.496099" stop-color="#66A1D7" stop-opacity="0.484375"/>
<stop offset="0.916667" stop-color="#96E6FF" stop-opacity="0.484375"/>
</linearGradient>
<linearGradient id="paint3_linear_334_1475" x1="634.5" y1="203" x2="634.5" y2="670" gradientUnits="userSpaceOnUse">
<stop stop-color="#1969B4" stop-opacity="0.484375"/>
<stop offset="0.496099" stop-color="#66A1D7" stop-opacity="0.484375"/>
<stop offset="0.916667" stop-color="#96E6FF" stop-opacity="0.484375"/>
</linearGradient>
<linearGradient id="paint4_linear_334_1475" x1="785.5" y1="514" x2="785.5" y2="670" gradientUnits="userSpaceOnUse">
<stop stop-color="#1969B4" stop-opacity="0.484375"/>
<stop offset="0.496099" stop-color="#66A1D7" stop-opacity="0.484375"/>
<stop offset="0.916667" stop-color="#96E6FF" stop-opacity="0.484375"/>
</linearGradient>
<linearGradient id="paint5_linear_334_1475" x1="936.5" y1="447" x2="936.5" y2="670" gradientUnits="userSpaceOnUse">
<stop stop-color="#1969B4" stop-opacity="0.484375"/>
<stop offset="0.496099" stop-color="#66A1D7" stop-opacity="0.484375"/>
<stop offset="0.916667" stop-color="#96E6FF" stop-opacity="0.484375"/>
</linearGradient>
<linearGradient id="paint6_linear_334_1475" x1="1087.5" y1="136" x2="1087.5" y2="670" gradientUnits="userSpaceOnUse">
<stop stop-color="#1969B4" stop-opacity="0.484375"/>
<stop offset="0.496099" stop-color="#66A1D7" stop-opacity="0.484375"/>
<stop offset="0.916667" stop-color="#96E6FF" stop-opacity="0.484375"/>
</linearGradient>
<clipPath id="clip0_334_1475">
<rect width="40" height="40" fill="white" transform="translate(160 14)"/>
</clipPath>
<clipPath id="clip1_334_1475">
<rect width="40" height="40" fill="white" transform="translate(915 14)"/>
</clipPath>
<clipPath id="clip2_334_1475">
<rect width="40" height="40" fill="white" transform="translate(311 14)"/>
</clipPath>
<clipPath id="clip3_334_1475">
<rect width="40" height="40" fill="white" transform="translate(764 14)"/>
</clipPath>
<clipPath id="clip4_334_1475">
<rect width="40" height="40" fill="white" transform="translate(462 14)"/>
</clipPath>
<clipPath id="clip5_334_1475">
<rect width="40" height="40" fill="white" transform="translate(613 14)"/>
</clipPath>
<clipPath id="clip6_334_1475">
<rect width="40" height="40" fill="white" transform="translate(1066 14)"/>
</clipPath>
</defs>
</svg>
